<?xml version="1.0" encoding="UTF-8" standalone="no"?>
<svg
   xmlns:dc="http://purl.org/dc/elements/1.1/"
   xmlns:cc="http://creativecommons.org/ns#"
   xmlns:rdf="http://www.w3.org/1999/02/22-rdf-syntax-ns#"
   xmlns:svg="http://www.w3.org/2000/svg"
   xmlns="http://www.w3.org/2000/svg"
   id="svg8"
   version="1.1"
   viewBox="0 0 423.33332 264.58334"
   height="1000"
   width="1600">
  <defs
     id="defs2">
    <style
       id="style5708">
      .cls-1 {
        fill-rule: evenodd;
      }
    </style>
    <style
       id="style4918"
       type="text/css">
   
    .fil0 {fill:#201E1E}
   
  </style>
    <style
       id="style5313"
       type="text/css">
   
    .fil0 {fill:#201E1E}
   
  </style>
    <style
       id="style5708-5">
      .cls-1 {
        fill-rule: evenodd;
      }
    </style>
    <style
       id="style5708-4">
      .cls-1 {
        fill-rule: evenodd;
      }
    </style>
    <style
       id="style7988"
       type="text/css">
   
    .fil0 {fill:black}
   
  </style>
    <style
       id="style5708-2">
      .cls-1 {
        fill-rule: evenodd;
      }
    </style>
    <style
       type="text/css"
       id="style4918-0">
   
    .fil0 {fill:#201E1E}
   
  </style>
    <style
       type="text/css"
       id="style5313-5">
   
    .fil0 {fill:#201E1E}
   
  </style>
    <style
       id="style5708-5-4">
      .cls-1 {
        fill-rule: evenodd;
      }
    </style>
    <style
       id="style5708-4-6">
      .cls-1 {
        fill-rule: evenodd;
      }
    </style>
    <style
       type="text/css"
       id="style7988-1">
   
    .fil0 {fill:black}
   
  </style>
    <style
       type="text/css"
       id="style4918-02">
   
    .fil0 {fill:#201E1E}
   
  </style>
    <style
       type="text/css"
       id="style5313-7">
   
    .fil0 {fill:#201E1E}
   
  </style>
    <style
       type="text/css"
       id="style4918-6">
   
    .fil0 {fill:#201E1E}
   
  </style>
    <style
       type="text/css"
       id="style5313-9">
   
    .fil0 {fill:#201E1E}
   
  </style>
    <style
       type="text/css"
       id="style7988-2">
   
    .fil0 {fill:black}
   
  </style>
    <style
       id="style5708-6">
      .cls-1 {
        fill-rule: evenodd;
      }
    </style>
    <style
       id="style5708-9">
      .cls-1 {
        fill-rule: evenodd;
      }
    </style>
    <style
       id="style4918-9"
       type="text/css">
   
    .fil0 {fill:#201E1E}
   
  </style>
    <style
       id="style5313-6"
       type="text/css">
   
    .fil0 {fill:#201E1E}
   
  </style>
    <style
       id="style5708-5-7">
      .cls-1 {
        fill-rule: evenodd;
      }
    </style>
    <style
       id="style5708-4-5">
      .cls-1 {
        fill-rule: evenodd;
      }
    </style>
    <style
       id="style7988-7"
       type="text/css">
   
    .fil0 {fill:black}
   
  </style>
    <style
       id="style5708-2-1">
      .cls-1 {
        fill-rule: evenodd;
      }
    </style>
    <style
       type="text/css"
       id="style4918-0-2">
   
    .fil0 {fill:#201E1E}
   
  </style>
    <style
       type="text/css"
       id="style5313-5-3">
   
    .fil0 {fill:#201E1E}
   
  </style>
    <style
       id="style5708-5-4-0">
      .cls-1 {
        fill-rule: evenodd;
      }
    </style>
    <style
       id="style5708-4-6-0">
      .cls-1 {
        fill-rule: evenodd;
      }
    </style>
    <style
       type="text/css"
       id="style7988-1-8">
   
    .fil0 {fill:black}
   
  </style>
    <style
       type="text/css"
       id="style4918-02-6">
   
    .fil0 {fill:#201E1E}
   
  </style>
    <style
       type="text/css"
       id="style5313-7-5">
   
    .fil0 {fill:#201E1E}
   
  </style>
    <style
       type="text/css"
       id="style4918-6-7">
   
    .fil0 {fill:#201E1E}
   
  </style>
    <style
       type="text/css"
       id="style5313-9-3">
   
    .fil0 {fill:#201E1E}
   
  </style>
    <style
       type="text/css"
       id="style7988-2-3">
   
    .fil0 {fill:black}
   
  </style>
    <style
       id="style5708-6-0">
      .cls-1 {
        fill-rule: evenodd;
      }
    </style>
  </defs>
  <metadata
     id="metadata5">
    <rdf:RDF>
      <cc:Work
         rdf:about="">
        <dc:format>image/svg+xml</dc:format>
        <dc:type
           rdf:resource="http://purl.org/dc/dcmitype/StillImage" />
        <dc:title></dc:title>
      </cc:Work>
    </rdf:RDF>
  </metadata>
  <g
     transform="translate(0,-32.41665)"
     id="layer1">
    <g
       id="bg">
      <rect
         style="opacity:1;fill:#5b5b5b;fill-opacity:1;fill-rule:nonzero;stroke:none;stroke-width:2.43677974;stroke-linecap:butt;stroke-linejoin:round;stroke-miterlimit:4;stroke-dasharray:none;stroke-opacity:1;paint-order:fill markers stroke"
         id="rect4485"
         width="423.33334"
         height="77.485115"
         x="0"
         y="219.51486" />
      <rect
         y="29.959805"
         x="0"
         height="199.19345"
         width="423.33334"
         id="rect4487"
         style="opacity:1;fill:#909da6;fill-opacity:1;fill-rule:nonzero;stroke:none;stroke-width:3.90701127;stroke-linecap:butt;stroke-linejoin:round;stroke-miterlimit:4;stroke-dasharray:none;stroke-opacity:1;paint-order:fill markers stroke" />
      <g
         id="g4569"
         transform="translate(-32.729683,-3.7797619)">
        <rect
           style="opacity:1;fill:#8d8d8d;fill-opacity:1;fill-rule:nonzero;stroke:none;stroke-width:0.60592949;stroke-linecap:butt;stroke-linejoin:round;stroke-miterlimit:4;stroke-dasharray:none;stroke-opacity:1;paint-order:fill markers stroke"
           id="rect4528"
           width="2.1381562"
           height="15.635276"
           x="303.026"
           y="225.23811"
           ry="0.62541097" />
        <rect
           transform="rotate(90)"
           ry="0"
           y="-361.69165"
           x="239.67067"
           height="70.960068"
           width="1.7372519"
           id="rect4530"
           style="opacity:1;fill:#8d8d8d;fill-opacity:1;fill-rule:nonzero;stroke:none;stroke-width:1.16355789;stroke-linecap:butt;stroke-linejoin:round;stroke-miterlimit:4;stroke-dasharray:none;stroke-opacity:1;paint-order:fill markers stroke" />
        <rect
           ry="0.62541097"
           y="225.23811"
           x="346.85822"
           height="15.635276"
           width="2.1381562"
           id="rect4559"
           style="opacity:1;fill:#8d8d8d;fill-opacity:1;fill-rule:nonzero;stroke:none;stroke-width:0.60592949;stroke-linecap:butt;stroke-linejoin:round;stroke-miterlimit:4;stroke-dasharray:none;stroke-opacity:1;paint-order:fill markers stroke" />
        <rect
           transform="rotate(-90)"
           ry="2.2557549"
           y="296.67834"
           x="-228.37854"
           height="56.393879"
           width="4.1426778"
           id="rect4561"
           style="opacity:1;fill:#363636;fill-opacity:1;fill-rule:nonzero;stroke:none;stroke-width:1.60179222;stroke-linecap:butt;stroke-linejoin:round;stroke-miterlimit:4;stroke-dasharray:none;stroke-opacity:1;paint-order:fill markers stroke" />
      </g>
      <g
         id="g4783">
        <rect
           transform="rotate(90)"
           style="opacity:1;fill:#5e4d43;fill-opacity:1;fill-rule:nonzero;stroke:none;stroke-width:6.5312705;stroke-linecap:butt;stroke-linejoin:round;stroke-miterlimit:4;stroke-dasharray:none;stroke-opacity:1;paint-order:fill markers stroke"
           id="rect4571"
           width="96.983902"
           height="166.99966"
           x="49.2673"
           y="-376.98175"
           ry="0" />
        <rect
           transform="rotate(90)"
           ry="0"
           y="-369.57874"
           x="53.566555"
           height="152.19357"
           width="88.385361"
           id="rect4563"
           style="opacity:1;fill:#a8aeb2;fill-opacity:1;fill-rule:nonzero;stroke:none;stroke-width:5.95221186;stroke-linecap:butt;stroke-linejoin:round;stroke-miterlimit:4;stroke-dasharray:none;stroke-opacity:1;paint-order:fill markers stroke" />
      </g>
      <g
         id="g4779">
        <rect
           style="opacity:1;fill:#2e2e2e;fill-opacity:1;fill-rule:nonzero;stroke:none;stroke-width:0.47876522;stroke-linecap:butt;stroke-linejoin:round;stroke-miterlimit:4;stroke-dasharray:none;stroke-opacity:1;paint-order:fill markers stroke"
           id="rect4489"
           width="259.70282"
           height="4.8756976"
           x="163.63052"
           y="154.04964" />
        <g
           transform="matrix(1,0,0,0.89824142,-1.8898809,26.357433)"
           id="g4529">
          <rect
             style="opacity:1;fill:#424242;fill-opacity:1;fill-rule:nonzero;stroke:#2e2e2e;stroke-width:0.54316461;stroke-linecap:butt;stroke-linejoin:round;stroke-miterlimit:4;stroke-dasharray:none;stroke-opacity:1;paint-order:fill markers stroke"
             id="rect4491"
             width="70.713234"
             height="23.04785"
             x="170.95284"
             y="147.85764" />
          <rect
             style="opacity:1;fill:#2e2e2e;fill-opacity:1;fill-rule:nonzero;stroke:none;stroke-width:1.48815882;stroke-linecap:butt;stroke-linejoin:round;stroke-miterlimit:4;stroke-dasharray:none;stroke-opacity:1;paint-order:fill markers stroke"
             id="rect4495"
             width="18.318638"
             height="2.9079316"
             x="197.15012"
             y="149.88579" />
          <rect
             y="170.90549"
             x="170.95284"
             height="23.04785"
             width="70.713234"
             id="rect4497"
             style="opacity:1;fill:#424242;fill-opacity:1;fill-rule:nonzero;stroke:#2e2e2e;stroke-width:0.54316461;stroke-linecap:butt;stroke-linejoin:round;stroke-miterlimit:4;stroke-dasharray:none;stroke-opacity:1;paint-order:fill markers stroke" />
          <rect
             y="172.88066"
             x="197.15012"
             height="2.9079316"
             width="18.318638"
             id="rect4499"
             style="opacity:1;fill:#2e2e2e;fill-opacity:1;fill-rule:nonzero;stroke:none;stroke-width:1.48815882;stroke-linecap:butt;stroke-linejoin:round;stroke-miterlimit:4;stroke-dasharray:none;stroke-opacity:1;paint-order:fill markers stroke" />
          <rect
             y="217.88315"
             x="236.14597"
             height="22.563915"
             width="5.4149585"
             id="rect4511"
             style="opacity:1;fill:#2e2e2e;fill-opacity:1;fill-rule:nonzero;stroke:none;stroke-width:0.14872047;stroke-linecap:butt;stroke-linejoin:round;stroke-miterlimit:4;stroke-dasharray:none;stroke-opacity:1;paint-order:fill markers stroke" />
          <rect
             style="opacity:1;fill:#2e2e2e;fill-opacity:1;fill-rule:nonzero;stroke:none;stroke-width:0.14872047;stroke-linecap:butt;stroke-linejoin:round;stroke-miterlimit:4;stroke-dasharray:none;stroke-opacity:1;paint-order:fill markers stroke"
             id="rect4509"
             width="5.4149585"
             height="22.563915"
             x="170.94234"
             y="217.88315" />
          <rect
             style="opacity:1;fill:#424242;fill-opacity:1;fill-rule:nonzero;stroke:#2e2e2e;stroke-width:0.72768635;stroke-linecap:butt;stroke-linejoin:round;stroke-miterlimit:4;stroke-dasharray:none;stroke-opacity:1;paint-order:fill markers stroke"
             id="rect4501"
             width="70.552315"
             height="41.46154"
             x="171.03329"
             y="194.05911" />
          <rect
             style="opacity:1;fill:#2e2e2e;fill-opacity:1;fill-rule:nonzero;stroke:none;stroke-width:1.48815882;stroke-linecap:butt;stroke-linejoin:round;stroke-miterlimit:4;stroke-dasharray:none;stroke-opacity:1;paint-order:fill markers stroke"
             id="rect4503"
             width="18.318638"
             height="2.9079316"
             x="197.15012"
             y="196.81099" />
        </g>
        <g
           transform="matrix(1,0,0,0.89824142,177.60412,26.357433)"
           id="g4547">
          <rect
             y="147.85764"
             x="170.95284"
             height="23.04785"
             width="70.713234"
             id="rect4531"
             style="opacity:1;fill:#424242;fill-opacity:1;fill-rule:nonzero;stroke:#2e2e2e;stroke-width:0.54316461;stroke-linecap:butt;stroke-linejoin:round;stroke-miterlimit:4;stroke-dasharray:none;stroke-opacity:1;paint-order:fill markers stroke" />
          <rect
             y="149.88579"
             x="197.15012"
             height="2.9079316"
             width="18.318638"
             id="rect4533"
             style="opacity:1;fill:#2e2e2e;fill-opacity:1;fill-rule:nonzero;stroke:none;stroke-width:1.48815882;stroke-linecap:butt;stroke-linejoin:round;stroke-miterlimit:4;stroke-dasharray:none;stroke-opacity:1;paint-order:fill markers stroke" />
          <rect
             style="opacity:1;fill:#424242;fill-opacity:1;fill-rule:nonzero;stroke:#2e2e2e;stroke-width:0.54316461;stroke-linecap:butt;stroke-linejoin:round;stroke-miterlimit:4;stroke-dasharray:none;stroke-opacity:1;paint-order:fill markers stroke"
             id="rect4535"
             width="70.713234"
             height="23.04785"
             x="170.95284"
             y="170.90549" />
          <rect
             style="opacity:1;fill:#2e2e2e;fill-opacity:1;fill-rule:nonzero;stroke:none;stroke-width:1.48815882;stroke-linecap:butt;stroke-linejoin:round;stroke-miterlimit:4;stroke-dasharray:none;stroke-opacity:1;paint-order:fill markers stroke"
             id="rect4537"
             width="18.318638"
             height="2.9079316"
             x="197.15012"
             y="172.88066" />
          <rect
             style="opacity:1;fill:#2e2e2e;fill-opacity:1;fill-rule:nonzero;stroke:none;stroke-width:0.14872047;stroke-linecap:butt;stroke-linejoin:round;stroke-miterlimit:4;stroke-dasharray:none;stroke-opacity:1;paint-order:fill markers stroke"
             id="rect4539"
             width="5.4149585"
             height="22.563915"
             x="236.14597"
             y="217.88315" />
          <rect
             y="217.88315"
             x="170.94234"
             height="22.563915"
             width="5.4149585"
             id="rect4541"
             style="opacity:1;fill:#2e2e2e;fill-opacity:1;fill-rule:nonzero;stroke:none;stroke-width:0.14872047;stroke-linecap:butt;stroke-linejoin:round;stroke-miterlimit:4;stroke-dasharray:none;stroke-opacity:1;paint-order:fill markers stroke" />
          <rect
             y="194.05911"
             x="171.03329"
             height="41.46154"
             width="70.552315"
             id="rect4543"
             style="opacity:1;fill:#424242;fill-opacity:1;fill-rule:nonzero;stroke:#2e2e2e;stroke-width:0.72768635;stroke-linecap:butt;stroke-linejoin:round;stroke-miterlimit:4;stroke-dasharray:none;stroke-opacity:1;paint-order:fill markers stroke" />
          <rect
             y="196.81099"
             x="197.15012"
             height="2.9079316"
             width="18.318638"
             id="rect4545"
             style="opacity:1;fill:#2e2e2e;fill-opacity:1;fill-rule:nonzero;stroke:none;stroke-width:1.48815882;stroke-linecap:butt;stroke-linejoin:round;stroke-miterlimit:4;stroke-dasharray:none;stroke-opacity:1;paint-order:fill markers stroke" />
        </g>
      </g>
      <g
         id="g4657"
         transform="matrix(1.3677737,0,0,1.3677737,167.80853,-106.25832)">
        <rect
           style="opacity:1;fill:#585858;fill-opacity:1;fill-rule:nonzero;stroke:none;stroke-width:0.35224655;stroke-linecap:butt;stroke-linejoin:round;stroke-miterlimit:4;stroke-dasharray:none;stroke-opacity:1;paint-order:fill markers stroke"
           id="rect4584"
           width="3.6982212"
           height="28.844549"
           x="90.24984"
           y="212.98827" />
        <rect
           y="221.9012"
           x="89.021446"
           height="27.769823"
           width="6.1550665"
           id="rect4549"
           style="opacity:1;fill:#424242;fill-opacity:1;fill-rule:nonzero;stroke:none;stroke-width:0.44588345;stroke-linecap:butt;stroke-linejoin:round;stroke-miterlimit:4;stroke-dasharray:none;stroke-opacity:1;paint-order:fill markers stroke" />
        <rect
           transform="rotate(-77.356312)"
           style="opacity:1;fill:#424242;fill-opacity:1;fill-rule:nonzero;stroke:none;stroke-width:0.40315989;stroke-linecap:butt;stroke-linejoin:round;stroke-miterlimit:4;stroke-dasharray:none;stroke-opacity:1;paint-order:fill markers stroke"
           id="rect4551"
           width="3.8872094"
           height="35.948425"
           x="-224.13087"
           y="141.5125" />
        <rect
           y="-326.61963"
           x="78.598099"
           height="9.3588724"
           width="3.9119422"
           id="rect4553"
           style="opacity:1;fill:#424242;fill-opacity:1;fill-rule:nonzero;stroke:none;stroke-width:0.20636041;stroke-linecap:butt;stroke-linejoin:round;stroke-miterlimit:4;stroke-dasharray:none;stroke-opacity:1;paint-order:fill markers stroke"
           transform="matrix(-0.9920841,0.12557524,-0.63961546,-0.76869504,0,0)" />
        <circle
           r="4.8191962"
           cy="263.5491"
           cx="128.98439"
           id="path4555"
           style="opacity:1;fill:#272727;fill-opacity:1;fill-rule:nonzero;stroke:none;stroke-width:0.78199995;stroke-linecap:butt;stroke-linejoin:round;stroke-miterlimit:4;stroke-dasharray:none;stroke-opacity:1;paint-order:fill markers stroke" />
        <rect
           y="-38.218678"
           x="-264.44949"
           height="35.948425"
           width="3.8872094"
           id="rect4557"
           style="opacity:1;fill:#424242;fill-opacity:1;fill-rule:nonzero;stroke:none;stroke-width:0.40315989;stroke-linecap:butt;stroke-linejoin:round;stroke-miterlimit:4;stroke-dasharray:none;stroke-opacity:1;paint-order:fill markers stroke"
           transform="matrix(-0.21888731,-0.97575014,-0.97575014,0.21888731,0,0)" />
        <rect
           transform="matrix(0.9920841,0.12557524,0.63961546,-0.76869504,0,0)"
           style="opacity:1;fill:#424242;fill-opacity:1;fill-rule:nonzero;stroke:none;stroke-width:0.20636041;stroke-linecap:butt;stroke-linejoin:round;stroke-miterlimit:4;stroke-dasharray:none;stroke-opacity:1;paint-order:fill markers stroke"
           id="rect4560"
           width="3.9119422"
           height="9.3588724"
           x="246.57422"
           y="-299.17877" />
        <circle
           transform="scale(-1,1)"
           style="opacity:1;fill:#272727;fill-opacity:1;fill-rule:nonzero;stroke:none;stroke-width:0.78199995;stroke-linecap:butt;stroke-linejoin:round;stroke-miterlimit:4;stroke-dasharray:none;stroke-opacity:1;paint-order:fill markers stroke"
           id="circle4562"
           cx="-55.213585"
           cy="263.5491"
           r="4.8191962" />
        <rect
           style="opacity:1;fill:#393939;fill-opacity:1;fill-rule:nonzero;stroke:none;stroke-width:0.3140392;stroke-linecap:butt;stroke-linejoin:round;stroke-miterlimit:4;stroke-dasharray:none;stroke-opacity:1;paint-order:fill markers stroke"
           id="rect4603"
           width="56.501198"
           height="6.6130376"
           x="63.848351"
           y="212.86836" />
        <rect
           y="163.82428"
           x="65.26577"
           height="54.948418"
           width="53.666378"
           id="rect4586"
           style="opacity:1;fill:#4c4c4c;fill-opacity:1;fill-rule:nonzero;stroke:none;stroke-width:0.88223296;stroke-linecap:butt;stroke-linejoin:round;stroke-miterlimit:4;stroke-dasharray:none;stroke-opacity:1;paint-order:fill markers stroke" />
        <rect
           style="opacity:1;fill:#4c4c4c;fill-opacity:1;fill-rule:nonzero;stroke:none;stroke-width:0.08274885;stroke-linecap:butt;stroke-linejoin:round;stroke-miterlimit:4;stroke-dasharray:none;stroke-opacity:1;paint-order:fill markers stroke"
           id="rect4588"
           width="6.7973309"
           height="3.8165982"
           x="119.31637"
           y="201.91591" />
        <rect
           y="205.63229"
           x="121.45455"
           height="4.2843199"
           width="2.5210185"
           id="rect4590"
           style="opacity:1;fill:#6c6c6c;fill-opacity:1;fill-rule:nonzero;stroke:none;stroke-width:0.0533929;stroke-linecap:butt;stroke-linejoin:round;stroke-miterlimit:4;stroke-dasharray:none;stroke-opacity:1;paint-order:fill markers stroke" />
        <rect
           transform="rotate(70.302683)"
           style="opacity:1;fill:#6c6c6c;fill-opacity:1;fill-rule:nonzero;stroke:none;stroke-width:0.14966178;stroke-linecap:butt;stroke-linejoin:round;stroke-miterlimit:4;stroke-dasharray:none;stroke-opacity:1;paint-order:fill markers stroke"
           id="rect4592"
           width="2.5210185"
           height="33.661755"
           x="236.8987"
           y="-45.96862" />
        <rect
           transform="scale(-1,1)"
           y="201.91591"
           x="-64.591148"
           height="3.8165982"
           width="6.7973309"
           id="rect4594"
           style="opacity:1;fill:#4c4c4c;fill-opacity:1;fill-rule:nonzero;stroke:none;stroke-width:0.08274885;stroke-linecap:butt;stroke-linejoin:round;stroke-miterlimit:4;stroke-dasharray:none;stroke-opacity:1;paint-order:fill markers stroke" />
        <rect
           transform="scale(-1,1)"
           style="opacity:1;fill:#6c6c6c;fill-opacity:1;fill-rule:nonzero;stroke:none;stroke-width:0.0533929;stroke-linecap:butt;stroke-linejoin:round;stroke-miterlimit:4;stroke-dasharray:none;stroke-opacity:1;paint-order:fill markers stroke"
           id="rect4596"
           width="2.5210185"
           height="4.2843199"
           x="-62.452965"
           y="205.63229" />
        <rect
           y="127.1778"
           x="174.91245"
           height="33.661755"
           width="2.5210185"
           id="rect4598"
           style="opacity:1;fill:#6c6c6c;fill-opacity:1;fill-rule:nonzero;stroke:none;stroke-width:0.14966178;stroke-linecap:butt;stroke-linejoin:round;stroke-miterlimit:4;stroke-dasharray:none;stroke-opacity:1;paint-order:fill markers stroke"
           transform="matrix(-0.33705117,0.94148633,0.94148633,0.33705117,0,0)" />
        <path
           id="rect4600"
           d="m 90.680193,218.79053 h 2.52102 v 2.13782 l -1.24396,0.45728 -1.27706,-0.45728 z"
           style="opacity:1;fill:#6c6c6c;fill-opacity:1;fill-rule:nonzero;stroke:none;stroke-width:0.03771614;stroke-linecap:butt;stroke-linejoin:round;stroke-miterlimit:4;stroke-dasharray:none;stroke-opacity:1;paint-order:fill markers stroke" />
        <rect
           style="opacity:1;fill:#424242;fill-opacity:1;fill-rule:nonzero;stroke:none;stroke-width:0.24479558;stroke-linecap:butt;stroke-linejoin:round;stroke-miterlimit:4;stroke-dasharray:none;stroke-opacity:1;paint-order:fill markers stroke"
           id="rect4614"
           width="3.7927153"
           height="13.58376"
           x="90.202621"
           y="247.23756" />
        <circle
           style="opacity:1;fill:#272727;fill-opacity:1;fill-rule:nonzero;stroke:none;stroke-width:0.78199995;stroke-linecap:butt;stroke-linejoin:round;stroke-miterlimit:4;stroke-dasharray:none;stroke-opacity:1;paint-order:fill markers stroke"
           id="circle4612"
           cx="92.063545"
           cy="263.5491"
           r="4.8191962" />
      </g>
      <g
         id="g4791">
        <ellipse
           style="opacity:1;fill:#c9cbc6;fill-opacity:1;fill-rule:nonzero;stroke:#564742;stroke-width:2.73007059;stroke-linecap:butt;stroke-linejoin:round;stroke-miterlimit:4;stroke-dasharray:none;stroke-opacity:1;paint-order:fill markers stroke"
           id="ellipse4682"
           cx="106.29924"
           cy="81.808701"
           rx="11.589881"
           ry="7.7377124" />
        <rect
           y="114.29037"
           x="105.27145"
           height="123.67899"
           width="2.2750316"
           id="rect4707"
           style="opacity:1;fill:#555555;fill-opacity:1;fill-rule:nonzero;stroke:none;stroke-width:1.579386;stroke-linecap:butt;stroke-linejoin:round;stroke-miterlimit:4;stroke-dasharray:none;stroke-opacity:1;paint-order:fill markers stroke" />
        <path
           id="rect4672"
           d="m 88.995977,87.792352 c 4.624986,-12.967767 29.135463,-13.563523 34.659953,0 1.44508,3.214599 1.73108,16.875948 0.29249,22.594788 -4.33422,15.33573 -30.495332,16.53819 -35.318054,-1.02371 -1.603158,-6.63629 -1.321763,-16.919349 0.365611,-21.571078 z"
           style="opacity:1;fill:#564742;fill-opacity:1;fill-rule:nonzero;stroke:none;stroke-width:0.60513467;stroke-linecap:butt;stroke-linejoin:round;stroke-miterlimit:4;stroke-dasharray:none;stroke-opacity:1;paint-order:fill markers stroke" />
        <ellipse
           ry="12.357666"
           rx="15.940657"
           cy="108.91376"
           cx="106.40895"
           id="path4670"
           style="opacity:1;fill:#c9cbc6;fill-opacity:1;fill-rule:nonzero;stroke:none;stroke-width:0.60513467;stroke-linecap:butt;stroke-linejoin:round;stroke-miterlimit:4;stroke-dasharray:none;stroke-opacity:1;paint-order:fill markers stroke" />
        <ellipse
           ry="12.329399"
           rx="18.467508"
           cy="76.287971"
           cx="106.29924"
           id="ellipse4693"
           style="opacity:1;fill:none;fill-opacity:1;fill-rule:nonzero;stroke:#564742;stroke-width:1.86170602;stroke-linecap:butt;stroke-linejoin:round;stroke-miterlimit:4;stroke-dasharray:none;stroke-opacity:1;paint-order:fill markers stroke" />
        <ellipse
           style="opacity:1;fill:#555555;fill-opacity:1;fill-rule:nonzero;stroke:none;stroke-width:0.4287909;stroke-linecap:butt;stroke-linejoin:round;stroke-miterlimit:4;stroke-dasharray:none;stroke-opacity:1;paint-order:fill markers stroke"
           id="ellipse4709"
           cx="106.40895"
           cy="239.36615"
           rx="15.940657"
           ry="6.2047396" />
      </g>
      <g
         transform="matrix(1.1466758,0,0,1.1466758,-0.23570163,-45.531971)"
         id="g4749">
        <rect
           y="141.5125"
           x="-224.13087"
           height="35.948425"
           width="3.8872094"
           id="rect4715"
           style="opacity:1;fill:#424242;fill-opacity:1;fill-rule:nonzero;stroke:none;stroke-width:0.40315989;stroke-linecap:butt;stroke-linejoin:round;stroke-miterlimit:4;stroke-dasharray:none;stroke-opacity:1;paint-order:fill markers stroke"
           transform="rotate(-77.356312)" />
        <rect
           transform="matrix(-0.9920841,0.12557524,-0.63961546,-0.76869504,0,0)"
           style="opacity:1;fill:#424242;fill-opacity:1;fill-rule:nonzero;stroke:none;stroke-width:0.20636041;stroke-linecap:butt;stroke-linejoin:round;stroke-miterlimit:4;stroke-dasharray:none;stroke-opacity:1;paint-order:fill markers stroke"
           id="rect4717"
           width="3.9119422"
           height="9.3588724"
           x="78.598099"
           y="-326.61963" />
        <circle
           style="opacity:1;fill:#272727;fill-opacity:1;fill-rule:nonzero;stroke:none;stroke-width:0.78199995;stroke-linecap:butt;stroke-linejoin:round;stroke-miterlimit:4;stroke-dasharray:none;stroke-opacity:1;paint-order:fill markers stroke"
           id="circle4719"
           cx="128.98439"
           cy="263.5491"
           r="4.8191962" />
        <rect
           transform="matrix(-0.21888731,-0.97575014,-0.97575014,0.21888731,0,0)"
           style="opacity:1;fill:#424242;fill-opacity:1;fill-rule:nonzero;stroke:none;stroke-width:0.40315989;stroke-linecap:butt;stroke-linejoin:round;stroke-miterlimit:4;stroke-dasharray:none;stroke-opacity:1;paint-order:fill markers stroke"
           id="rect4721"
           width="3.8872094"
           height="35.948425"
           x="-264.44949"
           y="-38.218678" />
        <rect
           y="-299.17877"
           x="246.57422"
           height="9.3588724"
           width="3.9119422"
           id="rect4723"
           style="opacity:1;fill:#424242;fill-opacity:1;fill-rule:nonzero;stroke:none;stroke-width:0.20636041;stroke-linecap:butt;stroke-linejoin:round;stroke-miterlimit:4;stroke-dasharray:none;stroke-opacity:1;paint-order:fill markers stroke"
           transform="matrix(0.9920841,0.12557524,0.63961546,-0.76869504,0,0)" />
        <circle
           r="4.8191962"
           cy="263.5491"
           cx="-55.213585"
           id="circle4725"
           style="opacity:1;fill:#272727;fill-opacity:1;fill-rule:nonzero;stroke:none;stroke-width:0.78199995;stroke-linecap:butt;stroke-linejoin:round;stroke-miterlimit:4;stroke-dasharray:none;stroke-opacity:1;paint-order:fill markers stroke"
           transform="scale(-1,1)" />
        <rect
           y="-45.96862"
           x="236.8987"
           height="33.661755"
           width="2.5210185"
           id="rect4735"
           style="opacity:1;fill:#6c6c6c;fill-opacity:1;fill-rule:nonzero;stroke:none;stroke-width:0.14966178;stroke-linecap:butt;stroke-linejoin:round;stroke-miterlimit:4;stroke-dasharray:none;stroke-opacity:1;paint-order:fill markers stroke"
           transform="rotate(70.302683)" />
        <rect
           transform="matrix(-0.33705117,0.94148633,0.94148633,0.33705117,0,0)"
           style="opacity:1;fill:#6c6c6c;fill-opacity:1;fill-rule:nonzero;stroke:none;stroke-width:0.14966178;stroke-linecap:butt;stroke-linejoin:round;stroke-miterlimit:4;stroke-dasharray:none;stroke-opacity:1;paint-order:fill markers stroke"
           id="rect4741"
           width="2.5210185"
           height="33.661755"
           x="174.91245"
           y="127.1778" />
        <rect
           style="opacity:1;fill:#4c4c4c;fill-opacity:1;fill-rule:nonzero;stroke:none;stroke-width:0.88223296;stroke-linecap:butt;stroke-linejoin:round;stroke-miterlimit:4;stroke-dasharray:none;stroke-opacity:1;paint-order:fill markers stroke"
           id="rect4729"
           width="53.666378"
           height="54.948418"
           x="65.26577"
           y="163.82428"
           ry="0" />
        <path
           style="opacity:1;fill:#6c6c6c;fill-opacity:1;fill-rule:nonzero;stroke:none;stroke-width:0.03771614;stroke-linecap:butt;stroke-linejoin:round;stroke-miterlimit:4;stroke-dasharray:none;stroke-opacity:1;paint-order:fill markers stroke"
           d="m 90.680193,218.79053 h 2.52102 v 2.13782 l -1.24396,0.45728 -1.27706,-0.45728 z"
           id="path4743" />
        <rect
           y="212.98827"
           x="90.24984"
           height="28.844549"
           width="3.6982212"
           id="rect4711"
           style="opacity:1;fill:#585858;fill-opacity:1;fill-rule:nonzero;stroke:none;stroke-width:0.35224655;stroke-linecap:butt;stroke-linejoin:round;stroke-miterlimit:4;stroke-dasharray:none;stroke-opacity:1;paint-order:fill markers stroke" />
        <rect
           style="opacity:1;fill:#424242;fill-opacity:1;fill-rule:nonzero;stroke:none;stroke-width:0.43996131;stroke-linecap:butt;stroke-linejoin:round;stroke-miterlimit:4;stroke-dasharray:none;stroke-opacity:1;paint-order:fill markers stroke"
           id="rect4713"
           width="6.1550665"
           height="27.037054"
           x="89.021446"
           y="222.63397" />
        <rect
           y="212.86836"
           x="63.848351"
           height="6.6130376"
           width="56.501198"
           id="rect4727"
           style="opacity:1;fill:#393939;fill-opacity:1;fill-rule:nonzero;stroke:none;stroke-width:0.3140392;stroke-linecap:butt;stroke-linejoin:round;stroke-miterlimit:4;stroke-dasharray:none;stroke-opacity:1;paint-order:fill markers stroke" />
        <rect
           y="201.91591"
           x="119.31637"
           height="3.8165982"
           width="6.7973309"
           id="rect4731"
           style="opacity:1;fill:#4c4c4c;fill-opacity:1;fill-rule:nonzero;stroke:none;stroke-width:0.08274885;stroke-linecap:butt;stroke-linejoin:round;stroke-miterlimit:4;stroke-dasharray:none;stroke-opacity:1;paint-order:fill markers stroke" />
        <rect
           style="opacity:1;fill:#6c6c6c;fill-opacity:1;fill-rule:nonzero;stroke:none;stroke-width:0.0533929;stroke-linecap:butt;stroke-linejoin:round;stroke-miterlimit:4;stroke-dasharray:none;stroke-opacity:1;paint-order:fill markers stroke"
           id="rect4733"
           width="2.5210185"
           height="4.2843199"
           x="121.45455"
           y="205.63229" />
        <rect
           style="opacity:1;fill:#4c4c4c;fill-opacity:1;fill-rule:nonzero;stroke:none;stroke-width:0.08274885;stroke-linecap:butt;stroke-linejoin:round;stroke-miterlimit:4;stroke-dasharray:none;stroke-opacity:1;paint-order:fill markers stroke"
           id="rect4737"
           width="6.7973309"
           height="3.8165982"
           x="-64.591148"
           y="201.91591"
           transform="scale(-1,1)" />
        <rect
           y="205.63229"
           x="-62.452965"
           height="4.2843199"
           width="2.5210185"
           id="rect4739"
           style="opacity:1;fill:#6c6c6c;fill-opacity:1;fill-rule:nonzero;stroke:none;stroke-width:0.0533929;stroke-linecap:butt;stroke-linejoin:round;stroke-miterlimit:4;stroke-dasharray:none;stroke-opacity:1;paint-order:fill markers stroke"
           transform="scale(-1,1)" />
        <rect
           y="247.23756"
           x="90.202621"
           height="13.58376"
           width="3.7927153"
           id="rect4745"
           style="opacity:1;fill:#424242;fill-opacity:1;fill-rule:nonzero;stroke:none;stroke-width:0.24479558;stroke-linecap:butt;stroke-linejoin:round;stroke-miterlimit:4;stroke-dasharray:none;stroke-opacity:1;paint-order:fill markers stroke" />
        <circle
           r="4.8191962"
           cy="263.5491"
           cx="92.063545"
           id="circle4747"
           style="opacity:1;fill:#272727;fill-opacity:1;fill-rule:nonzero;stroke:none;stroke-width:0.78199995;stroke-linecap:butt;stroke-linejoin:round;stroke-miterlimit:4;stroke-dasharray:none;stroke-opacity:1;paint-order:fill markers stroke" />
      </g>
      <g
         id="g4602"
         transform="matrix(0.0143174,0.21952711,-0.21952711,0.0143174,245.20252,127.87004)">
        <path
           style="opacity:1;fill:#2e2e2e;fill-opacity:1;fill-rule:nonzero;stroke:#000000;stroke-width:1.28881896;stroke-linecap:butt;stroke-linejoin:round;stroke-miterlimit:4;stroke-dasharray:none;stroke-opacity:1;paint-order:fill markers stroke"
           d="m 682.91016,-229.59375 c -0.28,4 -1.00961,9.75 -6.09961,9.75 h -0.84961 v 10 a 1.5,1.5 0 1 1 -3,0 v -10 h -7 v 10 a 1.5,1.5 0 0 1 -3,0 v -10 h -7 v 10 a 1.5,1.5 0 0 1 -3,0 v -10 h -1 c -5.1,0 -5.80961,-5.7207 -6.09961,-9.7207 a 29.49,29.49 0 0 0 -0.46094,7.90039 c 0.44,5.23 3.03945,18.82031 9.68945,18.82031 h 18.58985 c 6.69,0 9.2514,-13.59031 9.6914,-18.82031 a 29,29 0 0 0 -0.46093,-7.92969 z"
           id="path4818"
           transform="translate(-573.97036,244.3042)" />
        <path
           style="opacity:1;fill:#585858;fill-opacity:1;fill-rule:nonzero;stroke:none;stroke-width:7.71401596;stroke-linecap:butt;stroke-linejoin:round;stroke-miterlimit:4;stroke-dasharray:none;stroke-opacity:1;paint-order:fill markers stroke"
           d="m 685.91016,-217.39453 c -0.79,4.45 -2.58016,11.43937 -6.41016,15.10937 -0.23,3.21 -1.71,21.29039 -2,27.65039 -0.62,12.59 -1,50.62 -1,51 a 11.89,11.89 0 0 1 -12,11.75 h -0.44922 a 11.9,11.9 0 0 1 -12,-11.75976 c 0,-0.37 -0.42,-38.46008 -1,-51.08008 -0.32,-6.7 -1.96008,-26.57 -2.08008,-28 -3,-3.19 -4.69961,-8.42008 -5.59961,-12.58008 a 317.5,317.5 0 0 0 -0.14062,32.15039 c 0.01,0.08 1.67,16.93024 3.25,39.24024 1.93,27.42 2.92969,46.510466 2.92969,56.730466 0,7.27 7.14054,12.339844 13.56054,12.339844 h 3.43946 c 6.41,0 13.56054,-5.069844 13.56054,-12.339844 0,-10.2 1.00016,-29.291016 2.91016,-56.791016 1.58,-22.33 3.25976,-39.16008 3.25976,-39.33008 l 0.01,0.0606 a 299.2,299.2 0 0 0 -0.24023,-34.15039 z"
           transform="translate(-573.97036,244.3042)"
           id="path4816" />
        <path
           style="opacity:1;fill:#404040;fill-opacity:1;fill-rule:nonzero;stroke:none;stroke-width:8.5158577;stroke-linecap:butt;stroke-linejoin:round;stroke-miterlimit:4;stroke-dasharray:none;stroke-opacity:1;paint-order:fill markers stroke"
           d="m 75,41.58 c 0.554776,6.200067 1.862073,21.184954 2.162576,27.005425 0.716586,13.359668 1.155784,53.585475 1.155784,53.986155 a 10.286478,9.3844549 0 0 0 10.402058,9.25718 h 0.474055 a 10.274921,9.3739106 0 0 0 10.402058,-9.23658 c 0,-0.41124 0.473869,-40.575006 1.155789,-53.934674 0.28895,-5.820471 1.58269,-20.582039 2.14903,-26.908639 a 8.9110953,8.1296795 0 0 1 -2.934612,0.45308 H 78.467352 A 8.8764218,8.0980465 0 0 1 75,41.58 Z"
           id="rect4809" />
        <path
           id="path4588"
           d="M 113.05,16.62 A 1.49,1.49 0 0 0 112.2,15.81 11.87,11.87 0 0 0 110,10 2.44,2.44 0 0 0 108.22,9 c -1.92,0 -2.06,2.05 -2.23,4.65 -0.27,4.11 -0.72,7.8 -3.17,7.8 H 102 v -11 a 1.5,1.5 0 1 0 -3,0 v 11 h -7 v -11 a 1.5,1.5 0 1 0 -3,0 v 11 h -7 v -11 a 1.5,1.5 0 1 0 -3,0 v 11 h -1 c -2.45,0 -2.9,-3.69 -3.17,-7.81 C 74.65,11.06 74.52,9 72.6,9 a 2.44,2.44 0 0 0 -1.78,1 12.42,12.42 0 0 0 -2.24,6.29 1.48,1.48 0 0 0 -0.21,0.34 c -2.46,5.74 -2.84,26.56 -2.11,44.74 0,0.17 1.67,17 3.25,39.24 1.91,27 2.92,46.51 2.92,56.52 0,7.41 6.66,15.34 16.56,15.34 h 3.43 c 9.91,0 16.56,-7.93 16.56,-15.34 0,-10.13 1,-29.15 2.92,-56.52 1.58,-22.26 3.24,-39.08 3.26,-39.33 0.73,-18.1 0.35,-38.92 -2.11,-44.66 z M 71.89,14.74 c 0.29,4 1,9.72 6.1,9.72 h 1 v 10 a 1.5,1.5 0 0 0 3,0 v -10 h 7 v 10 a 1.5,1.5 0 0 0 3,0 v -10 h 7 v 10 a 1.5,1.5 0 1 0 3,0 v -10 h 0.85 c 5.09,0 5.82,-5.75 6.1,-9.75 a 29,29 0 0 1 0.46,7.93 c -0.44,5.23 -3,18.82 -9.69,18.82 H 81.12 c -6.65,0 -9.25,-13.59 -9.69,-18.82 a 29.49,29.49 0 0 1 0.46,-7.9 z M 102.27,44 c -0.49,6 -1.61,20 -1.86,25.52 -0.59,12.67 -1,50.76 -1,51.15 a 8.89,8.89 0 0 1 -9,8.76 H 90 a 8.9,8.9 0 0 1 -9,-8.78 C 81,120.27 80.62,82.12 80,69.45 79.74,63.93 78.61,49.72 78.13,43.84 a 7.68,7.68 0 0 0 3,0.59 h 18.6 A 7.71,7.71 0 0 0 102.27,44 Z m 9.9,17 c 0,0.17 -1.68,17 -3.26,39.33 -1.91,27.5 -2.91,46.59 -2.91,56.79 0,7.27 -7.15,12.34 -13.56,12.34 H 89 c -6.42,0 -13.56,-5.07 -13.56,-12.34 0,-10.22 -1,-29.31 -2.93,-56.73 C 70.93,78.08 69.27,61.23 69.26,61.15 A 317.5,317.5 0 0 1 69.4,29 c 0.9,4.16 2.6,9.39 5.6,12.58 0.12,1.43 1.76,21.3 2.08,28 0.58,12.62 1,50.71 1,51.08 a 11.9,11.9 0 0 0 12,11.76 h 0.45 a 11.89,11.89 0 0 0 12,-11.75 c 0,-0.38 0.38,-38.41 1,-51 0.29,-6.36 1.77,-24.44 2,-27.65 3.83,-3.67 5.62,-10.66 6.41,-15.11 a 299.2,299.2 0 0 1 0.24,34.15 z"
           style="fill:#232323;fill-opacity:1" />
        <path
           id="path4590"
           d="m 90,106.79 a 7,7 0 0 0 -7,7.4 v 5.27 a 7,7 0 1 0 14,0 v -5.27 a 7,7 0 0 0 -7,-7.4 z m 4,12.67 a 4,4 0 1 1 -8,0 v -5.27 a 4,4 0 1 1 8,0 z"
           style="fill:#212121;fill-opacity:1" />
      </g>
      <g
         id="g4990"
         transform="matrix(2.3317105,0,0,2.3317105,-163.32666,166.23857)">
        <path
           style="opacity:1;fill:#aba7a0;fill-opacity:1;fill-rule:nonzero;stroke:none;stroke-width:0.35798272;stroke-linecap:butt;stroke-linejoin:round;stroke-miterlimit:4;stroke-dasharray:none;stroke-opacity:1;paint-order:fill markers stroke"
           d="m 231.64684,-20.83798 h 5.29167 v 1.5875 h -2.11667 v 0.79375 h 0.79375 v 1.177705 c 0.76996,0.277495 1.32292,1.013606 1.32292,1.87792 v 8.176247 c 0,1.1011958 -0.8961,1.9972946 -1.9973,1.9972946 h -3.41374 c -1.1012,0 -1.9973,-0.8960988 -1.9973,-1.9972946 v -0.913122 -6.35 -0.913125 c 0,-0.864314 0.55297,-1.600425 1.32292,-1.87792 v -1.177705 h 0.79375 z"
           id="path4903" />
        <path
           style="opacity:1;fill:#57534d;fill-opacity:1;fill-rule:nonzero;stroke:none;stroke-width:0.35798272;stroke-linecap:butt;stroke-linejoin:round;stroke-miterlimit:4;stroke-dasharray:none;stroke-opacity:1;paint-order:fill markers stroke"
           d="m 232.17601,-20.308813 v 1.852083 h 2.11666 v -1.322917 h 2.11667 v -0.529166 z"
           id="path4901" />
        <path
           style="opacity:1;fill:#48635f;fill-opacity:1;fill-rule:nonzero;stroke:none;stroke-width:0.35798272;stroke-linecap:butt;stroke-linejoin:round;stroke-miterlimit:4;stroke-dasharray:none;stroke-opacity:1;paint-order:fill markers stroke"
           d="m 231.52746,-16.869129 c -0.80962,0 -1.46812,0.6585 -1.46812,1.468125 v 0.913125 h 4.7625 v 6.3499998 h -4.7625 v 0.9131221 c 0,0.809625 0.6585,1.4681279 1.46812,1.4681279 h 3.41375 c 0.80963,0 1.46813,-0.6585029 1.46813,-1.4681279 v -8.1762469 c 0,-0.809625 -0.6585,-1.468125 -1.46813,-1.468125 z"
           id="rect4885" />
        <path
           id="path4643"
           d="m 231.52746,-16.869129 c -0.80963,0 -1.46818,0.658548 -1.46818,1.468173 v 8.1761539 c 0,0.809625 0.65855,1.4681729 1.46818,1.4681729 h 3.41365 c 0.80963,0 1.46817,-0.6585479 1.46817,-1.4681729 v -8.1761539 c 0,-0.809625 -0.65854,-1.468173 -1.46817,-1.468173 z m 3.41365,11.6416665 h -3.41365 c -1.1012,0 -1.99734,-0.8961438 -1.99734,-1.9973396 v -8.1761539 c 0,-1.101196 0.89614,-1.99734 1.99734,-1.99734 h 3.41365 c 1.1012,0 1.99734,0.896144 1.99734,1.99734 v 8.1761539 c 0,1.1011958 -0.89614,1.9973396 -1.99734,1.9973396 z"
           style="fill:#000000;fill-rule:evenodd;stroke:none;stroke-width:0.26458332" />
        <path
           id="path4645"
           d="m 231.38225,-17.398296 h 3.70417 v -0.529166 h -3.70417 z m -0.52916,0.529167 h 4.7625 v -1.5875 h -4.7625 z"
           style="fill:#000000;fill-rule:evenodd;stroke:none;stroke-width:0.26458332" />
        <path
           id="path4647"
           d="m 232.176,-18.456629 h 2.11667 v -1.322917 h 2.11667 v -0.529166 H 232.176 Z m 2.64584,0.529167 h -3.175 v -2.910417 h 5.29166 v 1.5875 h -2.11666 z"
           style="fill:#000000;fill-rule:evenodd;stroke:none;stroke-width:0.26458332" />
        <path
           id="path4649"
           d="m 230.05934,-8.6670458 h 4.23333 v -5.2916662 h -4.23333 z m -0.52917,0.5291666 h 5.29167 v -6.3499998 h -5.29167 z"
           style="fill:#000000;fill-rule:evenodd;stroke:none;stroke-width:0.26458332" />
        <path
           id="path4651"
           d="m 231.38225,-12.371212 h -1.5875 c -0.14631,0 -0.26458,-0.118534 -0.26458,-0.264584 0,-0.14605 0.11827,-0.264583 0.26458,-0.264583 h 1.5875 c 0.14632,0 0.26459,0.118533 0.26459,0.264583 0,0.14605 -0.11827,0.264584 -0.26459,0.264584"
           style="fill:#000000;fill-rule:evenodd;stroke:none;stroke-width:0.26458332" />
        <path
           id="path4653"
           d="m 232.70517,-11.048296 h -2.91042 c -0.14631,0 -0.26458,-0.118533 -0.26458,-0.264583 0,-0.14605 0.11827,-0.264583 0.26458,-0.264583 h 2.91042 c 0.14631,0 0.26458,0.118533 0.26458,0.264583 0,0.14605 -0.11827,0.264583 -0.26458,0.264583"
           style="fill:#000000;fill-rule:evenodd;stroke:none;stroke-width:0.26458332" />
        <path
           id="path4655"
           d="m 232.70517,-9.7253791 h -2.91042 c -0.14631,0 -0.26458,-0.1185334 -0.26458,-0.2645834 0,-0.1460495 0.11827,-0.2645835 0.26458,-0.2645835 h 2.91042 c 0.14631,0 0.26458,0.118534 0.26458,0.2645835 0,0.14605 -0.11827,0.2645834 -0.26458,0.2645834"
           style="fill:#000000;fill-rule:evenodd;stroke:none;stroke-width:0.26458332" />
      </g>
      <g
         id="g4720"
         transform="matrix(0.28850069,0,0,0.28850069,166.14018,118.95558)">
        <circle
           style="opacity:1;fill:#c4c4c4;fill-opacity:1;fill-rule:nonzero;stroke:none;stroke-width:7.71401596;stroke-linecap:butt;stroke-linejoin:round;stroke-miterlimit:4;stroke-dasharray:none;stroke-opacity:1;paint-order:fill markers stroke"
           id="path4807"
           cx="63.861774"
           cy="45.982143"
           r="32.94643" />
        <path
           id="path4710"
           d="m 47.779432,46.524096 c 0.650345,0 1.409079,-0.216781 1.842642,-0.758735 L 63.929647,31.457788 c 1.083908,-1.083907 1.083908,-2.709767 0,-3.793674 -1.083907,-1.083907 -2.709767,-1.083907 -3.793674,0 L 45.93679,41.971687 c -1.083907,1.083907 -1.083907,2.709767 0,3.793674 0.541954,0.541954 1.192298,0.758735 1.842642,0.758735 z"
           style="fill:#242424;fill-opacity:1;stroke-width:1.08390701" />
        <path
           id="path4712"
           d="m 48.429777,60.181325 c 0.541953,0.541954 1.192297,0.758735 1.842642,0.758735 0.650344,0 1.409079,-0.216781 1.842642,-0.758735 l 26.23055,-26.23055 c 1.083907,-1.083908 1.083907,-2.709768 0,-3.793675 -1.083907,-1.083907 -2.709767,-1.083907 -3.793674,0 l -26.12216,26.230551 c -1.083908,1.083907 -1.083908,2.709767 0,3.793674 z"
           style="fill:#242424;fill-opacity:1;stroke-width:1.08390701" />
        <path
           id="path4714"
           d="m 28.1,119.24286 c 0,1.3 1.1,2.4 2.4,2.4 h 66.8 c 1.3,0 2.4,-1.1 2.4,-2.4 v -10.2 H 28.1 Z"
           style="fill:#4e4e4e;fill-opacity:1" />
        <path
           id="path4716"
           d="m 113.02696,40.435234 h -5.57434 c 0,0.661362 0.0945,1.322723 0.0945,2.078566 0,0.850321 0,1.700643 -0.0945,2.550966 h 3.21233 C 109.53119,68.023459 93.4,89.2 69.5,91.9 c -0.7,0.1 -1.3,0.1 -2,0.2 -0.3,0 -0.5,0 -0.8,0.1 -1.9,0.1 -3.7,0.1 -5.6,0 -0.3,0 -0.5,0 -0.8,-0.1 -0.7,0 -1.3,-0.1 -2,-0.2 C 34.4,89.2 18.263294,68.023459 17.129531,45.064766 h 2.645446 c -0.09448,-0.850323 -0.09448,-1.700645 -0.09448,-2.550966 0,-0.661362 0,-1.322723 0.09448,-2.078566 H 14.767526 C 13.539283,40.435234 12.5,41.474517 12.5,42.70276 12.5,68.21242 29.3,92.2 55.1,96.3 v 13.1 h 17.5 v -13 c 25.8,-4.2 42.6,-28.18758 42.6,-53.60276 0.18896,-1.322723 -0.85032,-2.362006 -2.17304,-2.362006 z"
           style="fill:#6a3c3c;fill-opacity:1" />
        <path
           id="path4718"
           d="m 63.861773,90.964286 c 24.821472,0 44.982147,-20.160671 44.982147,-44.982143 C 108.84392,21.160671 88.683245,1 63.861773,1 39.040301,1 18.87963,21.160671 18.87963,45.982143 c 0,24.821472 20.160671,44.982143 44.982143,44.982143 z M 63.319819,13.898494 c 17.342513,0 31.541696,14.199182 31.541696,31.541695 0,17.342513 -14.199183,31.541696 -31.541696,31.541696 -17.342513,0 -31.541695,-14.199183 -31.541695,-31.541696 0,-17.342513 14.199182,-31.541695 31.541695,-31.541695 z"
           style="fill:#533737;fill-opacity:1;stroke-width:1.08390701" />
      </g>
      <g
         id="g4742"
         transform="matrix(0.26458333,0,0,0.26458333,380.17832,120.31526)">
        <path
           id="path4736"
           d="m 103.9,13.121831 c -11.8,0 -21.2,5.6 -22.9,13.2 H 68.4 v -6.9 c 0,-1.3 -1.1,-2.4 -2.4,-2.4 H 49.2 c -1.3,0 -2.4,1.1 -2.4,2.4 v 19.7 h 21.7 v -8 H 81 c 1.7,7.5 11.1,13.2 22.9,13.2 13,0 23.1,-6.9 23.1,-15.6 0,-8.7 -10.2,-15.6 -23.1,-15.6 z"
           style="fill:#c9cbc6;fill-opacity:1;stroke:#c1c3be;stroke-opacity:1" />
        <rect
           id="rect4738"
           height="11.8"
           width="39.599998"
           y="37.808376"
           x="37.700001"
           style="fill:#888c81;fill-opacity:1;stroke:#797d72;stroke-opacity:1" />
        <path
           id="path4740"
           d="M 87.9,48.7 H 27.2 C 11.1,57 1,71.5 1,87.5 c 0,16.1 10,30.7 26.8,39.2 0.3,0.2 0.7,0.3 1.1,0.3 h 57.2 c 0.4,0 0.8,-0.1 1.1,-0.3 C 104,118.2 114,103.6 114,87.5 114.1,71.5 103.9,57 87.9,48.7 Z"
           style="fill:#699082;fill-opacity:1;stroke:#5e8275;stroke-opacity:1" />
      </g>
      <g
         id="g5012"
         transform="translate(155.34821,89.958333)">
        <rect
           style="opacity:1;fill:#c9cbc6;fill-opacity:1;fill-rule:nonzero;stroke:#545454;stroke-width:1.27306271;stroke-linecap:butt;stroke-linejoin:round;stroke-miterlimit:4;stroke-dasharray:none;stroke-opacity:1;paint-order:fill markers stroke"
           id="rect5008"
           width="45.453945"
           height="59.746262"
           x="-15.093158"
           y="-34.766602" />
        <path
           id="path4767"
           d="m 3.3808492,-20.581505 c -2.1648478,0.04977 -4.03152634,0.64715 -5.4249918,1.742014 -1.1197519,0.870913 -1.940596,2.040268 -2.7119791,3.160014 l -2.1647258,3.060795 c -0.298599,0.398132 -0.9706329,1.368425 -0.5973794,2.338874 0.024828,0.07465 0.074798,0.149188 0.1245401,0.198954 0.3386704,0.3140394 0.7003746,0.5727494 1.0779705,0.7906494 0.025135,0.02021 0.050413,0.04214 0.075448,0.06201 0.083233,1.814684 -0.460366,3.680097 -1.5006836,5.1624765 l -0.074931,0.120922 c -0.2466697,0.332656 -0.5026874,0.717706 -0.615983,1.208196 -0.122518,0.542595 0.046246,1.109229 0.394291,1.5735462 0.1073264,0.1532387 0.2455228,0.28547221 0.3880901,0.39119171 -0.1501386,0.2422023 -0.2789529,0.5147152 -0.3079914,0.8319903 -0.056548,0.4736226 0.1471607,0.99329609 0.5488035,1.30586159 0.026099,0.0046 0.022061,0.031078 0.048059,0.035658 -0.1209689,0.3816747 -0.2511701,0.8152394 -0.2464967,1.2459176 -0.025826,0.9088913 0.423224,1.7130659 1.1069092,2.1021992 0.9090099,0.4825656 1.8606205,0.1133237 2.642216,-0.2056739 0.6068785,-0.2423186 1.1568599,-0.467815 1.5508096,-0.2640647 0.3939602,0.203745 0.5539521,0.8227827 0.6568075,1.4588252 l 0.3808553,2.1094303 c 0.1320069,0.7755043 0.2639545,1.5508869 0.40514316,2.2742816 0.05831,0.278934 0.2649834,0.476017 0.5255493,0.52193 0.052097,0.0092 0.1040056,0.01841 0.1607137,0.0016 L 7.3733703,10.177379 c 0.0521,0.0092 0.108656,-0.0084 0.165365,-0.02532 0.628346,-0.2116717 1.374602,-0.9395749 1.13378,-1.7073904 -0.452779,-1.4308561 -0.719948,-2.6855393 -0.802018,-3.8488593 0.0209,0.043376 0.04646,0.086445 0.06356,0.1291908 0.09954,0.2488326 0.174355,0.5225388 0.273885,0.821137 0.07467,0.2985981 0.174275,0.6217602 0.29869,0.9203584 0.696737,1.6671792 2.2893167,2.5380896 3.5832437,3.1104046 1.891134,0.8460319 3.458721,1.2195629 4.926831,1.2195629 h 0.273885 c 2.040424,-0.07465 3.831966,-0.9704974 4.926831,-2.4386095 1.642297,-2.1648446 1.61699,-5.1008094 1.442807,-7.93749989 -0.02492,-0.2737167 -0.198689,-0.4732787 -0.447519,-0.4981628 -0.248838,-0.024871 -0.47268,0.1495134 -0.522449,0.4232302 C 22.441433,1.4900498 22.117908,2.6347669 21.719779,3.7545153 21.495825,4.3517143 20.699484,6.2924568 19.455318,6.0933896 18.75859,5.9938556 18.185928,5.2228285 17.762915,3.85425 16.892002,1.0175595 16.519133,-2.0683401 16.170764,-5.0294456 c -0.07467,-0.572315 -0.124816,-1.119571 -0.199471,-1.691886 -0.348359,-2.861575 -0.820995,-5.8723274 -2.338876,-8.3855354 -2.090194,-3.458773 -6.0214207,-5.549252 -10.2515697,-5.474602 z"
           style="fill:#333333;fill-opacity:1;stroke-width:0.24883261" />
      </g>
      <g
         id="g4998"
         transform="translate(364.82414,134.77963)">
        <ellipse
           style="opacity:1;fill:#7f7a71;fill-opacity:1;fill-rule:nonzero;stroke:none;stroke-width:0.08282689;stroke-linecap:butt;stroke-linejoin:round;stroke-miterlimit:4;stroke-dasharray:none;stroke-opacity:1;paint-order:fill markers stroke"
           id="ellipse4852"
           cx="50.692383"
           cy="-9.6917973"
           rx="1.1806995"
           ry="1.5702088" />
        <ellipse
           ry="6.464582"
           rx="4.8609643"
           cy="7.2297044"
           cx="51.065186"
           id="path4850"
           style="opacity:1;fill:#907e60;fill-opacity:1;fill-rule:nonzero;stroke:none;stroke-width:0.34100002;stroke-linecap:butt;stroke-linejoin:round;stroke-miterlimit:4;stroke-dasharray:none;stroke-opacity:1;paint-order:fill markers stroke" />
        <g
           style="fill:#6f613b;fill-opacity:1"
           transform="matrix(0.26458333,0,0,0.26458333,33.847874,-14.464367)"
           id="g4784">
          <path
             style="fill:#6f613b;fill-opacity:1"
             d="m 74.5,11.965104 c 0,-1.1 -0.9,-2.0000001 -2,-2.0000001 h -17 c -1.1,0 -2,0.9000001 -2,2.0000001 v 13 h 20.9 v -13 z m -10.1,7.5 h -0.8 c -1.1,0 -2,-0.9 -2,-2 0,-1.1 0.9,-2 2,-2 h 0.8 c 1.1,0 2,0.9 2,2 0,1.1 -0.9,2 -2,2 z"
             id="path4782" />
          <rect
             style="fill:#3e3620;fill-opacity:1"
             x="47.900002"
             y="24.16688"
             width="32.299999"
             height="9.6999998"
             id="rect4778" />
          <path
             style="fill:#32575e;fill-opacity:1;stroke:#2b4a50;stroke-opacity:1"
             d="M 76.2,36.4 V 33.6 H 51.8 v 2.8 C 42.5,40.1 36.7,47.7 36.7,56 v 64.4 c 0,3.6 3.5,6.6 7.8,6.6 h 39 c 4.3,0 7.8,-2.9 7.8,-6.6 V 56 C 91.3,47.7 85.5,40.1 76.2,36.4 Z M 64,102.3 C 55.1,102.3 47.9,92.8 47.9,81.1 47.9,69.5 55.1,60 64,60 c 8.9,0 16.1,9.5 16.1,21.1 0,11.7 -7.2,21.2 -16.1,21.2 z"
             id="path4780" />
        </g>
      </g>
      <g
         id="g5016"
         transform="matrix(1.2219198,0,0,1.2219198,101.60104,115.00298)">
        <rect
           y="-49.298141"
           x="-68.958099"
           height="48.318001"
           width="40.084034"
           id="rect5006"
           style="opacity:1;fill:#c9cbc6;fill-opacity:1;fill-rule:nonzero;stroke:#545454;stroke-width:1.07509983;stroke-linecap:butt;stroke-linejoin:round;stroke-miterlimit:4;stroke-dasharray:none;stroke-opacity:1;paint-order:fill markers stroke" />
        <path
           style="fill:#333333;fill-opacity:1;stroke-width:0.26458332"
           d="m -38.427499,-33.961387 c -0.0529,-0.3175 -0.34396,-0.582083 -0.66146,-0.555625 -0.26458,0 -0.47625,0.15875 -0.58208,0.396875 -0.3175,-0.661458 -0.71438,-1.27 -1.16417,-1.825625 -0.21167,-0.238125 -0.55563,-0.3175 -0.82021,-0.15875 -0.26458,0.15875 -0.39687,0.502708 -0.29104,0.79375 0.13229,0.343958 0.23812,0.714375 0.3175,1.084792 -1.37583,-1.190625 -3.20146,-1.878542 -5.10646,-2.513542 -0.3175,-0.105833 -0.68792,0.05292 -0.79375,0.370417 -0.13229,0.3175 0.0265,0.687916 0.34396,0.820208 0.68792,0.3175 1.24354,0.846667 1.5875,1.508125 -1.42875,-0.211667 -2.8575,-0.502708 -4.23333,-0.846667 -0.60855,-0.15875 -1.16417,-0.291041 -1.61396,-0.608541 -0.84667,-0.582084 -1.24354,-1.640417 -1.66688,-2.883959 -0.0794,-0.264583 -0.34396,-0.449791 -0.635,-0.449791 -0.23812,0 -0.44979,0.132291 -0.55562,0.343958 0.15875,-0.846667 0.34396,-1.666875 0.60854,-2.487083 0.10583,-0.291042 -0.0265,-0.608542 -0.29104,-0.767292 -0.26459,-0.15875 -0.60854,-0.07937 -0.82021,0.15875 -1.16417,1.402292 -1.905,2.672292 -2.24896,3.942292 -0.21167,0.767291 -0.3175,1.561041 -0.3175,2.328333 -0.26458,-0.661458 -0.50271,-1.322917 -0.74083,-1.984375 -0.0794,-0.264583 -0.34396,-0.449792 -0.635,-0.449792 -0.29104,0 -0.52917,0.185209 -0.60854,0.449792 -0.60855,2.010833 -0.26459,4.233333 0.79375,5.979583 -0.0794,-0.05292 -0.15875,-0.105833 -0.23813,-0.132291 -0.18521,-0.105834 -0.39687,-0.132292 -0.58208,-0.05292 -0.18521,0.07937 -0.34396,0.238125 -0.39688,0.449792 -0.23812,0.899583 0.0794,1.931458 0.82021,2.725208 0.52917,0.582083 1.21708,0.978958 1.85208,1.322917 0.39688,1.772708 0.18521,3.704166 -0.58208,5.344583 l -0.0529,0.132292 c -0.1852,0.370416 -0.37041,0.79375 -0.39687,1.296458 -0.0265,0.555625 0.23812,1.084792 0.66146,1.481667 0.13229,0.132291 0.29104,0.238125 0.44979,0.3175 -0.10583,0.264583 -0.18521,0.555625 -0.15875,0.873125 0.0265,0.47625 0.3175,0.9525 0.76729,1.190625 0.0265,0 0.0265,0.02646 0.0529,0.02646 -0.0529,0.396875 -0.10584,0.846667 -0.0265,1.27 0.13229,0.899583 0.71437,1.613958 1.45521,1.878542 0.97896,0.3175 1.85208,-0.211667 2.56646,-0.661459 0.55562,-0.343958 1.05833,-0.661458 1.48166,-0.529166 0.42334,0.132291 0.68792,0.714375 0.89959,1.322916 l 0.74083,2.010834 c 0.26458,0.740833 0.52917,1.4816659 0.79375,2.1695829 0.10583,0.264583 0.34396,0.423333 0.60854,0.423333 0.0529,0 0.10583,0 0.15875,-0.02646 l 7.35542,-1.7727079 c 0.0529,0 0.10583,-0.02646 0.15875,-0.05292 0.58208,-0.3175 1.19062,-1.164167 0.82021,-1.878542 -0.9525,-1.825625 -1.50813,-3.386666 -1.69334,-4.894791 -0.21166,-1.799167 0.10584,-3.518959 0.92604,-4.815417 0.18521,-0.291042 0.39688,-0.582083 0.635,-0.899583 0.4498,-0.582084 0.89959,-1.164167 1.16417,-1.905 0.3175,-0.820209 0.34396,-1.666875 0.34396,-2.487084 0.0265,-2.248958 -0.13229,-4.524375 -0.44979,-6.773333 z"
           id="path4756" />
      </g>
      <g
         id="g5048"
         transform="matrix(0.40311636,0,0,0.40311636,103.15027,163.58122)">
        <path
           style="fill:#3b3b3b;fill-opacity:1;stroke-width:0.43261048"
           d="m 262.08522,-51.966943 c 0.29732,0.781531 0.64141,1.243355 1.41187,1.077 0.53847,-0.116737 1.22591,-0.488704 1.22591,-0.488704 l -6.26246,-25.927555 c 0.31072,-0.0024 0.4409,-0.02128 0.66511,-0.04695 0.54278,-0.06303 0.21129,-0.895055 0.0624,-1.579346 -0.14891,-0.684892 -0.61093,-2.207852 0.14418,-3.475293 0.66559,-1.117238 2.95476,-3.985752 0.14357,-7.022924 -0.3401,-0.367315 -0.97801,-0.840774 -1.80314,-0.983012 -0.32876,-0.08246 -0.31566,-0.509066 -0.28489,-0.903689 0.12619,-1.610764 1.48456,-2.248598 1.48456,-2.248598 l -0.12776,-0.320262 c -1.66464,0.663616 -2.06592,1.874294 -2.22763,2.928145 -0.0842,0.549587 -0.58363,0.769862 -0.58363,0.769862 l 0.004,8.13e-4 c -0.30502,0.132302 -0.62097,0.319595 -0.944,0.572452 -0.68377,0.584327 -1.13601,1.579929 -0.99239,2.03754 0.11279,0.360434 1.45396,5.237944 1.45396,5.237944 0.0465,0.09858 0.70222,3.176836 0.82182,3.790504 0.0943,0.484081 0.0482,0.93667 0.58211,1.126678 -0.0516,0.852775 -0.31724,1.412583 -0.62782,1.795625 -0.50602,-0.281009 -1.01905,-0.753382 -1.33326,-1.550413 0.11133,-0.321172 -0.0727,-0.632977 -0.18781,-1.003103 -0.18589,-0.596815 -1.07074,-3.617003 -1.0773,-3.726031 0,0 -1.13535,-4.929886 -1.20727,-5.300477 -0.0909,-0.470455 -0.96149,-1.132433 -1.84116,-1.322083 -2.59683,-0.444441 -3.61749,1.358914 -3.85801,2.291159 -1.03213,4.008108 2.34424,5.444862 3.46126,6.112612 1.266,0.756697 1.58299,2.316072 1.777,2.989391 0.19434,0.673598 0.29698,1.563355 0.80426,1.361391 0.25317,-0.101105 0.38093,-0.146208 0.79981,-0.378987 l 0.93608,1.994402 c -0.054,0.188997 -0.0453,0.45041 0.0586,0.851973 0.0264,0.100778 0.1532,0.479219 0.35438,1.062476 l 1.55845,-0.549075 0.19986,0.568008 -1.56057,0.549481 c 0.0893,0.256459 0.18774,0.537643 0.29393,0.84111 l 1.56271,-0.549893 0.19952,0.567101 -1.56297,0.550826 c 0.0941,0.267903 0.19314,0.548414 0.29634,0.840388 l 1.5621,-0.549866 0.20015,0.567692 -1.56177,0.55015 c 0.0962,0.272682 0.19579,0.55258 0.29697,0.840354 l 1.56058,-0.549488 0.20012,0.567082 -1.55935,0.54942 c 0.0976,0.275037 0.19682,0.555299 0.29786,0.840011 l 1.55758,-0.548123 0.19985,0.568023 -1.55635,0.548063 c 0.0982,0.276927 0.19784,0.557384 0.29848,0.839969 l 1.55365,-0.547016 0.19984,0.567393 -1.55214,0.546646 c 0.0989,0.278691 0.19883,0.558873 0.29938,0.839632 l 1.54882,-0.54558 0.19955,0.567717 -1.54673,0.544566 c 0.0996,0.280464 0.19921,0.560378 0.29877,0.83966 l 1.54433,-0.543229 0.19952,0.567109 -1.5416,0.54279 c 0.1006,0.281992 0.1999,0.562193 0.29938,0.839632 l 1.538,-0.541385 0.19983,0.567401 -1.53586,0.540995 c 0.10132,0.283763 0.20089,0.563676 0.29938,0.839625 l 1.53225,-0.539605 0.19955,0.567718 -1.52987,0.538273 c 0.10203,0.286843 0.20197,0.566988 0.29971,0.839917 l 1.52624,-0.536868 0.20016,0.567684 -1.52384,0.53616 c 0.10346,0.291686 0.20336,0.570591 0.29971,0.83991 l 1.52019,-0.535364 0.19954,0.567717 -1.51777,0.534642 c 0.1069,0.299474 0.20717,0.580543 0.29967,0.839308 l 1.51387,-0.532935 0.20016,0.567692 -1.51179,0.531927 c 0.12075,0.340151 0.22269,0.624527 0.29909,0.839952 l 1.50846,-0.530856 0.19984,0.567401 -1.50844,0.531463 c 0.10141,0.29844 0.19047,0.58345 0.27619,0.847733 l 1.52834,-0.537889 0.19955,0.567717 z m -6.79856,-33.914944 c -0.12437,-0.405525 -1.15772,-2.79537 0.88889,-3.502963 1.71234,-0.592015 2.93115,0.310182 3.54576,1.855195 0.68567,1.724555 0.003,3.815771 -1.68545,4.01195 -1.89398,0.219764 -2.7492,-2.364182 -2.7492,-2.364182 z m -7.87337,1.433283 c -0.19234,-1.651795 0.45195,-3.024354 2.2397,-3.316387 2.13727,-0.3492 2.36274,2.245472 2.44594,2.660845 0,0 0.4744,2.679946 -1.29758,3.386173 -1.57923,0.629667 -3.17277,-0.886975 -3.38806,-2.730631 z"
           id="path4561" />
        <g
           style="fill:#3b3b3b;fill-opacity:1"
           transform="matrix(-0.26033524,-0.31878655,0.31878655,-0.26033524,266.91199,-43.991702)"
           id="g4586">
          <path
             style="fill:#3b3b3b;fill-opacity:1"
             d="M 36.022,27.863 17.294,8.793 C 13.344,5.187 8.423,1.091 3.434,0 Z"
             id="path4572" />
          <path
             style="fill:#3b3b3b;fill-opacity:1"
             d="m 96.438,64.046 c -1.98,-5.842 -8.68,-10.085 -14.5,-7.992 -6.063,2.178 -4.688,4.082 -6.965,5.042 C 72.268,62.235 65.256,55.67 55.466,46.709 L 2.554,1.469 c 0.891,4.879 4.441,9.869 7.609,13.926 l 28.574,32.752 4.376,5.773 c 9.135,11.73 16.202,20.199 14.757,23.009 -1.132,2.196 -2.925,0.679 -5.564,6.556 -2.533,5.643 1.181,12.649 6.853,15.073 5.47,2.816 13.298,1.548 16.294,-4.158 3.378,-5.562 1.224,-13.414 -4.394,-16.743 -4.797,-3.396 -9.325,-9.762 -13.204,-17.897 7.813,4.494 13.812,9.498 16.829,14.542 2.887,5.857 10.549,8.609 16.355,5.67 5.919,-2.552 7.784,-10.256 5.399,-15.926 z M 65.104,79.04 c 6.403,0.888 10.667,9.64 5.936,14.585 -3.475,4.263 -10.759,2.788 -13.599,-1.41 -4.147,-6.127 0.785,-14.552 7.663,-13.175 z M 50.449,51.781 c -1.42,1.317 -3.64,1.232 -4.957,-0.189 -1.315,-1.421 -1.23,-3.641 0.191,-4.958 1.422,-1.315 3.641,-1.229 4.956,0.191 1.317,1.422 1.231,3.641 -0.19,4.956 z m 40.156,23.731 c -5.295,4.337 -13.692,-0.59 -14.085,-7.041 -0.843,-6.964 7.937,-11.232 13.727,-6.626 3.967,3.152 4.875,10.53 0.358,13.667 z"
             id="path4574" />
        </g>
        <g
           style="fill:#3b3b3b;fill-opacity:1"
           transform="matrix(-0.23453204,-0.30281289,-0.30281289,0.23453204,302.9039,-53.85657)"
           id="g4620">
          <g
             style="fill:#3b3b3b;fill-opacity:1"
             id="g4610">
            <path
               style="fill:#3b3b3b;fill-opacity:1"
               d="m 25.389,75.999 9.071,9.488 c 0.217,-0.199 0.434,-0.401 0.652,-0.606 l -9.077,-9.498 c -0.219,0.207 -0.434,0.413 -0.646,0.616 z"
               id="path4604" />
            <path
               style="fill:#3b3b3b;fill-opacity:1"
               d="m 64.886,33.291 8.131,5.653 c 0.169,-0.264 0.339,-0.525 0.506,-0.786 l -8.062,-5.606 c -0.192,0.246 -0.384,0.493 -0.575,0.739 z"
               id="path4606" />
            <path
               style="fill:#3b3b3b;fill-opacity:1"
               d="M 35.692,84.332 C 47.938,72.704 63.417,53.58 72.579,39.612 L 64.392,33.92 C 52.956,48.503 40.375,61.765 37.402,64.629 35.216,66.734 30.608,71.037 26.611,74.834 Z"
               id="path4608" />
          </g>
          <path
             style="fill:#3b3b3b;fill-opacity:1"
             d="m 79.906,26.206 c 1.427,-4.265 0.9,-5.757 -1.547,-7.038 -0.974,-0.509 -1.939,-0.339 -2.892,0.333 -0.767,0.539 -1.523,1.402 -2.271,2.492 -2.252,3.288 -4.71,6.63 -7.248,9.928 l 8.002,5.565 c 2.929,-4.626 5.047,-8.562 5.956,-11.28 z m -5.375,-0.072 c -0.349,-0.495 -0.231,-1.179 0.264,-1.528 0.495,-0.349 1.18,-0.23 1.528,0.264 0.348,0.494 0.231,1.179 -0.264,1.528 -0.495,0.35 -1.179,0.231 -1.528,-0.264 z"
             id="path4612" />
          <path
             style="fill:#3b3b3b;fill-opacity:1"
             d="m 33.872,86.028 -9.061,-9.479 c -2.14,2.048 -3.926,3.793 -4.783,4.721 -2.582,2.796 -3.917,6.665 -2.386,8.838 1.531,2.171 4.046,5.276 9.584,1.371 2.014,-1.419 4.255,-3.273 6.646,-5.451 z m -11.719,1.426 c -0.73,-1.035 -0.481,-2.465 0.553,-3.194 1.035,-0.73 2.464,-0.483 3.194,0.552 0.729,1.034 0.483,2.466 -0.552,3.195 -1.034,0.729 -2.466,0.481 -3.195,-0.553 z"
             id="path4614" />
          <path
             style="fill:#3b3b3b;fill-opacity:1"
             d="m 80.662,26.459 c -0.063,0.189 -0.134,0.385 -0.208,0.587 1.508,-0.221 2.759,-0.403 3.618,-0.526 5.387,-0.773 8.563,-2.988 9.338,-3.534 0.773,-0.545 1.446,-1.335 1.808,-1.976 0.362,-0.641 0.27,-1.014 0.135,-1.192 -0.137,-0.178 -0.271,-0.571 -1.193,0.079 -0.925,0.651 -1.477,1.366 -2.292,1.941 -0.814,0.574 -6.11,3.21 -10.299,1.651 -0.051,-0.019 -0.105,-0.034 -0.157,-0.052 -0.109,0.867 -0.36,1.859 -0.75,3.022 z"
             id="path4616" />
          <path
             style="fill:#3b3b3b;fill-opacity:1"
             d="m 53.575,31.092 c 1.157,-0.217 7.128,-1.122 13.587,-2.083 1.579,-2.101 3.111,-4.207 4.566,-6.292 -6.347,0.412 -12.783,1.829 -13.34,1.913 -0.882,0.133 -10.68,1.92 -12.057,2.159 -1.376,0.238 -37.983,7.369 -38.939,7.616 -0.451,0.116 -0.908,0.153 -1.315,0.44 -1.9,1.339 -2.159,3.649 -1.91,5.646 0.116,-1.003 0.328,-2.168 0.714,-2.812 0.81,-1.348 2.105,-1.733 3.364,-2.01 1.34,-0.295 35.271,-6.607 36.715,-6.876 0.122,-0.022 0.24,0.058 0.263,0.182 0.023,0.123 -0.058,0.24 -0.181,0.264 -0.354,0.065 -35.367,6.579 -36.7,6.872 -1.455,0.322 -2.424,0.72 -3.073,1.801 -0.597,0.994 -0.747,3.515 -0.777,4.23 0.28,1.055 0.63,1.842 0.779,2.053 0.363,0.516 0.888,1 1.663,0.86 0,0 37.359,-7.031 37.974,-7.14 0.615,-0.107 3.479,-0.624 4.989,-1.688 2.498,-1.76 2.843,-3.895 2.984,-4.502 0.141,-0.61 0.329,-0.564 0.694,-0.633 z"
             id="path4618" />
        </g>
        <g
           transform="matrix(2.1278196,0,0,2.1278196,-254.22281,-33.81309)"
           id="g4978">
          <path
             id="path4930"
             d="m 241.17184,-18.678979 v 2.6036 h 2.01178 v -2.6036 z"
             style="opacity:1;fill:#56534c;fill-opacity:1;fill-rule:nonzero;stroke:none;stroke-width:0.06870662;stroke-linecap:butt;stroke-linejoin:round;stroke-miterlimit:4;stroke-dasharray:none;stroke-opacity:1;paint-order:fill markers stroke" />
          <path
             id="path4928"
             d="m 239.94863,-20.308712 h 4.56251 c 0.34714,0 0.62942,0.282032 0.62942,0.628901 v 0.594278 c 0,0.346869 -0.28228,0.628904 -0.62942,0.628904 h -4.56251 c -0.34713,0 -0.6289,-0.282035 -0.6289,-0.628904 v -0.594278 c 0,-0.346869 0.28177,-0.628901 0.6289,-0.628901 z"
             style="opacity:1;fill:#969592;fill-opacity:1;fill-rule:nonzero;stroke:none;stroke-width:0.34100002;stroke-linecap:butt;stroke-linejoin:round;stroke-miterlimit:4;stroke-dasharray:none;stroke-opacity:1;paint-order:fill markers stroke" />
          <path
             id="path4924"
             d="m 241.18476,-16.604647 h 2.09083 l 0.47749,9.7782145 c 0.0204,0.4209521 -0.12859,0.820965 -0.4191,1.1260296 -0.29077,0.3050646 -0.68259,0.4728395 -1.10381,0.4728395 -0.42121,0 -0.81303,-0.1677749 -1.1038,-0.4728395 -0.29078,-0.3050646 -0.43947,-0.7048262 -0.4191,-1.1255137 z"
             style="opacity:1;fill:#74808c;fill-opacity:1;fill-rule:nonzero;stroke:none;stroke-width:0.34100002;stroke-linecap:butt;stroke-linejoin:round;stroke-miterlimit:4;stroke-dasharray:none;stroke-opacity:1;paint-order:fill markers stroke" />
          <path
             style="fill:#333333;fill-opacity:1;fill-rule:evenodd;stroke:none;stroke-width:0.26458332"
             d="m 241.68833,-16.075379 -0.45244,9.2749686 c -0.0135,0.2746375 0.0836,0.5357812 0.27358,0.7350125 0.18971,0.1989666 0.44582,0.3087687 0.72073,0.3087687 0.2749,0 0.53102,-0.1098021 0.72046,-0.3087687 0.18997,-0.1992313 0.28707,-0.460375 0.27384,-0.7352771 l -0.45244,-9.274704 z m 0.54187,10.8479165 c -0.42122,0 -0.81307,-0.1680104 -1.10385,-0.473075 -0.29077,-0.3050646 -0.43947,-0.70485 -0.4191,-1.1255375 l 0.47731,-9.778471 h 2.09127 l 0.47731,9.7782064 c 0.0204,0.4209521 -0.12859,0.8207375 -0.4191,1.1258021 -0.29078,0.3050646 -0.68263,0.473075 -1.10384,0.473075 z"
             id="path4657" />
          <path
             style="fill:#333333;fill-opacity:1;fill-rule:evenodd;stroke:none;stroke-width:0.26458332"
             d="m 241.701,-16.604546 h 1.05834 v -0.529166 H 241.701 Z m -0.52916,0.529167 h 2.11666 v -1.5875 h -2.11666 z"
             id="path4659" />
          <path
             style="fill:#333333;fill-opacity:1;fill-rule:evenodd;stroke:none;stroke-width:0.26458332"
             d="m 241.43642,-17.133712 c -0.14631,0 -0.26458,-0.118534 -0.26458,-0.264584 0,-0.583671 -0.47467,-1.058333 -1.05834,-1.058333 -0.14631,0 -0.26458,-0.118533 -0.26458,-0.264583 0,-0.14605 0.11827,-0.264584 0.26458,-0.264584 0.87551,0 1.5875,0.711994 1.5875,1.5875 0,0.14605 -0.11827,0.264584 -0.26458,0.264584"
             id="path4661" />
          <path
             style="fill:#333333;fill-opacity:1;fill-rule:evenodd;stroke:none;stroke-width:0.26458332"
             d="m 243.02392,-17.133712 c -0.14631,0 -0.26458,-0.118534 -0.26458,-0.264584 0,-0.875506 0.71199,-1.5875 1.5875,-1.5875 0.14631,0 0.26458,0.118534 0.26458,0.264584 0,0.14605 -0.11827,0.264583 -0.26458,0.264583 -0.58367,0 -1.05834,0.474662 -1.05834,1.058333 0,0.14605 -0.11827,0.264584 -0.26458,0.264584"
             id="path4663" />
          <path
             style="fill:#333333;fill-opacity:1;fill-rule:evenodd;stroke:none;stroke-width:0.26458332"
             d="m 239.94891,-19.779546 c -0.055,0 -0.10002,0.04472 -0.10002,0.09975 v 0.594254 c 0,0.05503 0.045,0.09975 0.10002,0.09975 h 4.56247 c 0.055,0 0.10001,-0.04471 0.10001,-0.09975 v -0.594254 c 0,-0.05503 -0.045,-0.09975 -0.10001,-0.09975 z m 4.56247,1.322917 h -4.56247 c -0.34714,0 -0.62918,-0.282046 -0.62918,-0.628915 v -0.594254 c 0,-0.346869 0.28204,-0.628914 0.62918,-0.628914 h 4.56247 c 0.34713,0 0.62918,0.282045 0.62918,0.628914 v 0.594254 c 0,0.346869 -0.28205,0.628915 -0.62918,0.628915 z"
             id="path4665" />
          <path
             style="fill:#333333;fill-opacity:1;fill-rule:evenodd;stroke:none;stroke-width:0.26458332"
             d="m 241.4819,-11.842046 h 1.49649 l -0.0516,-1.058333 h -1.39329 z m 2.05211,0.529167 h -2.60773 l 0.10345,-2.116667 h 2.40083 z"
             id="path4667" />
        </g>
        <path
           style="fill:#4c3f32;fill-opacity:1;stroke-width:0.26458332"
           d="m 251.92239,-81.085072 v 0 c -0.3613,0.09731 -0.55929,0.441261 -0.46199,0.80257 l 1.87808,6.973139 -0.79486,0.214079 -1.87808,-6.97314 c -0.0973,-0.3613 -0.44127,-0.559294 -0.80257,-0.461987 v 0 c -0.3613,0.09731 -0.5593,0.44127 -0.46199,0.80257 l 1.90101,6.986339 -0.79487,0.214078 -1.86488,-6.996063 c -0.0973,-0.361308 -0.44126,-0.559303 -0.80257,-0.461987 v 0 c -0.3613,0.09731 -0.5593,0.44127 -0.46199,0.80257 l 1.87808,6.973139 -0.77193,0.227279 -1.87808,-6.97314 c -0.0973,-0.361299 -0.44127,-0.559294 -0.80257,-0.461987 v 0 c -0.36131,0.09731 -0.5593,0.44127 -0.46199,0.80257 l 1.87808,6.97314 -0.79487,0.214086 -1.87808,-6.973139 c -0.0973,-0.361308 -0.44126,-0.559303 -0.80257,-0.461988 v 0 c -0.3613,0.09731 -0.55929,0.441271 -0.46198,0.80257 l 1.89127,6.950208 -0.79486,0.214079 -1.87808,-6.97314 c -0.0973,-0.361299 -0.44127,-0.559294 -0.80257,-0.461987 v 0 c -0.3613,0.09731 -0.5593,0.44127 -0.46199,0.802578 l 1.90101,6.986331 -0.79487,0.214087 -1.86487,-6.996072 c -0.0973,-0.361299 -0.44127,-0.559294 -0.80257,-0.461987 v 0 c -0.36131,0.09731 -0.5593,0.44127 -0.46199,0.80257 l 2.01778,7.419902 v 0 l 0.4087,1.517471 6.8973,4.458775 v 0 l 7.43264,22.992621 c 0.0389,0.144527 0.19944,0.236924 0.34396,0.197994 0.14452,-0.03892 0.22372,-0.176504 0.19799,-0.343955 l -5.12031,-23.6154 v 0 l 3.725,-7.31969 -0.4087,-1.51747 v 0 l -1.99485,-7.406703 c -0.0973,-0.3613 -0.4642,-0.572494 -0.7894,-0.484867 z"
           id="path4699" />
        <path
           id="rect5018"
           d="m 244.40087,-65.399971 c -0.003,0.09263 -0.006,0.184237 -0.006,0.277283 v 26.510475 c 0,8.291824 5.43682,14.967464 12.18994,14.967464 h 8.76175 c 6.75309,0 12.18994,-6.67564 12.18994,-14.967464 v -26.510475 c 0,-0.09305 -0.004,-0.184653 -0.006,-0.277283 z"
           style="opacity:1;fill:#5d564b;fill-opacity:1;fill-rule:nonzero;stroke:none;stroke-width:0.93189943;stroke-linecap:butt;stroke-linejoin:round;stroke-miterlimit:4;stroke-dasharray:none;stroke-opacity:1;paint-order:fill markers stroke" />
      </g>
    </g>
    <g
       transform="translate(23.34904,-22.497038)"
       id="layer1-1">
      <g
         transform="matrix(0.83968513,0,0,0.83804009,267.10385,47.45208)"
         id="g35501">
        <path
           style="fill:#986234;fill-opacity:1;fill-rule:nonzero;stroke:#6f4f34;stroke-width:0.34447622;stroke-miterlimit:4;stroke-dashoffset:0;stroke-opacity:1"
           d="m -79.315852,236.00132 -3.917292,1.23385 -3.477791,-0.52878 c -2.341449,22.3427 3.471942,35.80532 4.421426,53.7895 l 12.513281,-1.40522 -6.899846,-3.13121 c -0.886046,-0.40209 1.59891,-31.42101 0.271359,-43.41617 z"
           id="path4643-9" />
        <rect
           style="fill:#000000;fill-opacity:1;fill-rule:nonzero;stroke:none;stroke-width:0.47050852"
           id="rect4645"
           width="20.0149"
           height="1.6166763"
           x="63.306965"
           y="291.3699"
           transform="scale(-1,1)" />
        <path
           style="fill:#593138;fill-opacity:1;fill-rule:nonzero;stroke:none;stroke-width:0.47050852"
           d="m -82.859279,286.71521 v 0 c -1.515218,2.48768 -0.431797,3.20071 -0.521958,4.71518 h 10.054359 10.054359 c 0,0 0.107928,-1.20203 -0.703007,-1.52823 -6.477276,-2.60527 -7.609923,-2.56666 -7.609923,-2.56666 l -1.965663,1.51353 -7.150444,-1.11012 v 0 z"
           id="path4647-2" />
        <path
           id="path5114"
           d="m -106.10183,236.00132 3.91729,1.23385 3.477793,-0.52878 c 2.341449,22.3427 -3.471943,35.80532 -4.421423,53.7895 l -12.51328,-1.40522 6.89986,-3.13121 c 0.88603,-0.40209 -1.59891,-31.42101 -0.27138,-43.41617 z"
           style="fill:#986234;fill-opacity:1;fill-rule:nonzero;stroke:#6f4f34;stroke-width:0.34447622;stroke-miterlimit:4;stroke-dashoffset:0;stroke-opacity:1" />
        <path
           style="fill:#794646;fill-opacity:1;fill-rule:nonzero;stroke:none;stroke-width:0.59001887"
           d="m -91.497602,182.48145 -25.224198,5.43712 c -2.49006,18.46564 -0.29083,38.16748 2.47418,65.94452 7.15215,0.6514 19.345182,1.43681 23.089568,1.51805 3.744441,-0.0812 14.918787,-1.0985 22.070906,-1.74985 2.765063,-27.77707 5.630406,-47.57371 2.813727,-65.71274 z"
           id="path4677" />
        <path
           id="rect5066"
           d="m -105.19169,104.63961 h 27.204721 c 1.74342,7.71968 1.384454,15.43935 0,23.15904 h -27.204721 c -1.42917,-7.77683 -2.43453,-15.53673 0,-23.15904 z"
           style="opacity:1;fill:#000000;fill-opacity:1;fill-rule:nonzero;stroke:none;stroke-width:0.76777285;stroke-linecap:butt;stroke-linejoin:round;stroke-miterlimit:4.9000001;stroke-dasharray:none;stroke-opacity:1;paint-order:fill markers stroke" />
        <path
           style="fill:#986234;fill-opacity:1;fill-rule:nonzero;stroke:#6f4f34;stroke-width:0.41353878;stroke-opacity:1"
           d="m -97.713789,110.93866 h 7.026614 l 5.216734,-0.14973 0.425866,10.32399 2.30616,9.05978 -8.481057,8.3713 -9.217928,-7.43093 2.30939,-9.30177 z"
           id="path4617" />
        <path
           id="path4671-6"
           d="m -98.427579,121.09289 c 0,0 -12.408551,3.53514 -21.862741,7.88892 -4.36285,2.199 -12.08885,25.88634 -13.50409,33.19849 -0.004,0.0622 -0.008,0.12537 -0.0119,0.18759 l 13.01109,3.20187 c 3.19207,-7.15061 6.74076,-17.76845 8.02483,-22.15369 l 3.19981,-0.23719 c -4.73647,8.241 -3.75073,14.80553 -2.80397,20.59771 -2.0607,5.53745 -3.52596,13.53901 -4.33875,18.78955 v 5.32525 l 25.162291,-0.91828 23.644034,0.86816 v -12.91601 c -0.785104,-3.86621 -1.780337,-7.92448 -2.98018,-11.14867 0.946751,-5.79218 1.931943,-12.35671 -2.80448,-20.59771 l 3.199805,0.23719 c 0.04962,1.69042 2.80026,11.38544 6.15828,22.27875 l 14.8239,-3.64784 c -5.059238,-16.28044 -11.245831,-31.71691 -13.462227,-33.06517 -9.454213,-4.35378 -21.863264,-7.88892 -21.863264,-7.88892 -0.06385,3.64511 0.788046,7.40464 -0.882116,10.84895 -1.384659,2.48551 -3.097014,4.59194 -5.913334,5.42551 -2.816365,-0.83357 -4.530225,-2.94 -5.914885,-5.42551 -1.670163,-3.44431 -0.818321,-7.20384 -0.882118,-10.84895 z"
           style="fill:#874b55;fill-opacity:1;fill-rule:nonzero;stroke:none;stroke-width:0.49612126" />
        <path
           id="path34901"
           transform="matrix(0.26458333,0,0,0.26458333,-288.76577,32.41665)"
           d="m 692.46875,343.03516 -15.19531,5 v 58.87109 c -16.48236,33.02633 -30.10337,116.01031 -40.21875,184.23828 -11.58293,99.61372 -3.11836,173.13074 -3.78125,257.88672 h 223.82812 c 8.12445,-120.37266 1.78451,-223.55007 -3.67383,-256.49609 -12.61348,-58.28263 -20.95586,-146.8098 -40.60156,-183.00196 v -61.49804 l -15.19726,-5 v 71.2832 c -35.76138,14.35465 -70.24534,11.91032 -105.16016,-1.75781 z"
           style="opacity:1;fill:#451620;fill-opacity:1;fill-rule:nonzero;stroke:#2d191d;stroke-width:2.64566922;stroke-linecap:butt;stroke-linejoin:round;stroke-miterlimit:4;stroke-dasharray:none;stroke-opacity:1;paint-order:fill markers stroke" />
        <path
           id="rect6768"
           d="m -91.816568,137.36769 h 0.37061 c 0.05904,2.29913 0.11465,4.45106 0.06288,6.87371 l -0.368544,-0.007 c -0.02321,-2.35226 -0.01662,-4.56843 -0.06495,-6.86648 z"
           style="opacity:1;fill:#6f3e46;fill-opacity:1;fill-rule:nonzero;stroke:none;stroke-width:0.16819833;stroke-linecap:butt;stroke-linejoin:round;stroke-miterlimit:4;stroke-dasharray:none;stroke-opacity:1;paint-order:fill markers stroke" />
        <path
           style="fill:#593138;fill-opacity:1;fill-rule:nonzero;stroke:none;stroke-width:0.49612123"
           d="m -91.631153,137.3677 c 3.413747,-4.48117 7.283817,-9.35329 6.74832,-16.87232 l 3.624675,1.2054 c -1.913716,7.58266 -5.086821,14.23438 -10.28852,18.05936 z"
           id="path4675" />
        <path
           style="fill:#986234;fill-opacity:1;fill-rule:nonzero;stroke:#6f4f34;stroke-width:0.34302104;stroke-opacity:1"
           d="m -113.01719,68.400724 41.762997,-0.477723 c 0,0 6.147118,21.709905 -2.266929,33.532119 -4.184271,5.87914 -9.795179,10.59336 -18.356249,10.65425 -8.632189,0.0614 -13.776509,-4.49298 -18.268489,-10.24517 -9.07888,-11.625907 -2.87133,-33.463476 -2.87133,-33.463476 z"
           id="path4619" />
        <g
           transform="translate(-0.31071379)"
           id="g4715">
          <g
             transform="matrix(0.34750457,0,0,0.34750457,-249.89606,-0.68441343)"
             id="g4625">
            <path
               style="fill:#ececec;fill-opacity:1;fill-rule:nonzero;stroke:none"
               d="m 418.28392,244.75616 c 8.62902,-0.88979 8.79575,-0.72646 8.79575,-0.72646 0,0 1.59591,-0.22397 10.63263,0.72646 1.07566,0.11314 0.91047,1.59783 0.65938,2.40086 -0.32275,1.03224 -1.71615,1.62658 -2.89659,2.20595 -2.22952,1.09427 -7.12374,1.1517 -7.12374,1.1517 0,0 -4.78448,0.10115 -6.95889,-0.79734 -1.2718,-0.52551 -2.28519,-1.38795 -2.87305,-2.29453 -0.58785,-0.90659 -1.60987,-2.52492 -0.23549,-2.66664 z"
               id="path4621" />
            <circle
               r="2.7232144"
               cy="210.22321"
               cx="573.61609"
               style="fill:#140702;fill-opacity:1;fill-rule:nonzero;stroke:none"
               id="circle4623"
               transform="translate(-145.17857,36.946393)" />
          </g>
          <g
             id="g4633"
             transform="matrix(-0.34750457,0,0,0.34750457,66.341907,-0.64973617)">
            <path
               style="fill:#ececec;fill-opacity:1;fill-rule:nonzero;stroke:none"
               d="m 418.28392,244.75616 c 8.62902,-0.88979 8.79575,-0.72646 8.79575,-0.72646 0,0 1.59591,-0.22397 10.63263,0.72646 1.07566,0.11314 0.91047,1.59783 0.65938,2.40086 -0.32275,1.03224 -1.71615,1.62658 -2.89659,2.20595 -2.22952,1.09427 -7.12374,1.1517 -7.12374,1.1517 0,0 -4.78448,0.10115 -6.95889,-0.79734 -1.2718,-0.52551 -2.28519,-1.38795 -2.87305,-2.29453 -0.58785,-0.90659 -1.60987,-2.52492 -0.23549,-2.66664 z"
               id="path4629" />
            <circle
               r="2.7232144"
               cy="210.22321"
               cx="573.61609"
               style="fill:#140702;fill-opacity:1;fill-rule:nonzero;stroke:none"
               id="circle4631"
               transform="translate(-145.17857,36.946393)" />
          </g>
        </g>
        <path
           style="opacity:0.23456792;fill:#333333;fill-opacity:1;fill-rule:nonzero;stroke:none;stroke-width:0.47050852"
           d="m -93.022418,90.981692 0.453658,-0.35221 -0.301294,5.635771 2.450298,0.08464 -0.680528,0.127689 -1.663201,-0.0071 c 0,0 -0.492641,-0.149555 -0.969079,-0.422506 -0.116168,-0.0665 -0.227323,-0.378049 -0.227323,-0.378049 z"
           id="path4635" />
        <path
           style="fill:#715035;fill-opacity:1;fill-rule:nonzero;stroke:none;stroke-width:0.47050852"
           d="m -96.758963,99.512483 c 0,0 3.493582,1.352677 5.258711,1.336037 1.767052,-0.016 5.320805,-1.436085 5.320805,-1.436085 l -0.02513,0.07504 c 0,0 -3.557501,2.055045 -5.314296,2.226645 -1.738051,0.16983 -5.077649,-1.6639 -5.077649,-1.6639 z"
           id="path4655-6" />
        <g
           transform="translate(-0.32250891)"
           id="g4719">
          <path
             id="path4627"
             d="m -105.60405,81.427384 c 0,0 2.98765,-0.757377 4.49568,-0.727181 1.499484,0.03006 4.366283,0.920768 4.366283,0.920768 0,0 0.09804,0.250508 0.07882,0.376127 -0.01922,0.124654 -0.191676,0.364961 -0.191676,0.364961 0,0 -2.797318,-0.891053 -4.312897,-0.920768 -1.49851,-0.02934 -4.51441,0.768191 -4.51441,0.768191 0,0 -0.15436,-0.257659 -0.1421,-0.388897 0.0124,-0.134979 0.22038,-0.393201 0.22038,-0.393201 z"
             style="fill:#342d28;fill-opacity:1;fill-rule:nonzero;stroke:none;stroke-width:0.47050852" />
          <path
             id="path4663-6"
             d="m -77.926771,81.467468 c 0,0 -2.987662,-0.757361 -4.495699,-0.727166 -1.499482,0.03006 -4.36628,0.92077 -4.36628,0.92077 0,0 -0.09804,0.250491 -0.07854,0.37611 0.01922,0.124653 0.191663,0.364979 0.191663,0.364979 0,0 2.797345,-0.891089 4.31292,-0.92077 1.49848,-0.02934 4.514401,0.768191 4.514401,0.768191 0,0 0.154355,-0.257676 0.142093,-0.388897 -0.01236,-0.134966 -0.220389,-0.393217 -0.220389,-0.393217 z"
             style="fill:#342d28;fill-opacity:1;fill-rule:nonzero;stroke:none;stroke-width:0.47050852" />
        </g>
        <g
           transform="matrix(0.47050854,0,0,0.47050854,-278.12593,-113.09735)"
           id="eyes"
           class="eyes" />
        <path
           id="rect5069"
           d="m -92.587902,58.81702 c 7.082611,-5.147591 18.285793,-1.996675 22.547028,3.345463 4.228184,4.574855 5.399747,19.666282 1.906384,24.268629 -3.157464,-13.41617 -18.65426,-4.77004 -24.453412,-15.636877 z"
           style="opacity:1;fill:#000000;fill-opacity:1;fill-rule:nonzero;stroke:none;stroke-width:0.82690948;stroke-linecap:butt;stroke-linejoin:round;stroke-miterlimit:4.9000001;stroke-dasharray:none;stroke-opacity:1;paint-order:fill markers stroke" />
        <path
           style="fill:#715035;fill-opacity:1;fill-rule:nonzero;stroke:none;stroke-width:0.59190631"
           d="m -69.939714,86.0587 c 0,3.040663 -0.433995,5.543691 0.628664,5.543691 1.062659,0 3.219558,-2.503028 3.219558,-5.543691 0,-3.04068 -0.556657,-5.353216 -1.619315,-5.353216 -1.062659,0 -2.228907,2.312536 -2.228907,5.353216 z"
           id="path4637" />
        <path
           id="rect5072"
           d="m -111.48492,62.411481 c 1.90842,-2.894966 10.80415,-7.879772 18.897018,-3.594461 v 11.977215 c -6.861768,4.185585 -3.352121,6.206926 -23.009808,13.174234 -0.12358,-8.027549 -1.21158,-14.566545 4.11279,-21.556988 z"
           style="opacity:1;fill:#000000;fill-opacity:1;fill-rule:nonzero;stroke:none;stroke-width:0.82690948;stroke-linecap:butt;stroke-linejoin:round;stroke-miterlimit:4.9000001;stroke-dasharray:none;stroke-opacity:1;paint-order:fill markers stroke" />
        <rect
           y="291.3699"
           x="-122.11075"
           height="1.6166763"
           width="20.0149"
           id="rect5116"
           style="fill:#000000;fill-opacity:1;fill-rule:nonzero;stroke:none;stroke-width:0.47050852" />
        <path
           id="path5118"
           d="m -102.5584,286.71521 v 0 c 1.51523,2.48768 0.43182,3.20071 0.52197,4.71518 h -10.05436 -10.05437 c 0,0 -0.10793,-1.20203 0.703,-1.52823 6.47728,-2.60527 7.60993,-2.56666 7.60993,-2.56666 l 1.96566,1.51353 7.15044,-1.11012 v 0 z"
           style="fill:#593138;fill-opacity:1;fill-rule:nonzero;stroke:none;stroke-width:0.47050852" />
        <path
           id="path5152"
           d="m -113.99463,86.0587 c 0,3.040663 0.434,5.543691 -0.62865,5.543691 -1.06266,0 -3.21958,-2.503028 -3.21958,-5.543691 0,-3.04068 0.55666,-5.353216 1.61933,-5.353216 1.06265,0 2.2289,2.312536 2.2289,5.353216 z"
           style="fill:#715035;fill-opacity:1;fill-rule:nonzero;stroke:none;stroke-width:0.59190631" />
        <path
           id="path6765"
           d="m -91.631153,137.3677 c -3.413748,-4.48117 -7.167238,-9.39518 -6.631741,-16.91423 l -3.623616,1.24731 c 1.913715,7.58266 4.969183,14.23438 10.170895,18.05936 z"
           style="fill:#593138;fill-opacity:1;fill-rule:nonzero;stroke:none;stroke-width:0.49612123" />
        <ellipse
           ry="0.57182777"
           rx="0.41587475"
           cy="143.38564"
           cx="-90.638924"
           id="path6771"
           style="opacity:1;fill:#6f3e46;fill-opacity:1;fill-rule:nonzero;stroke:none;stroke-width:0.29341951;stroke-linecap:butt;stroke-linejoin:round;stroke-miterlimit:4;stroke-dasharray:none;stroke-opacity:1;paint-order:fill markers stroke" />
        <ellipse
           ry="1.268418"
           rx="1.0812743"
           cy="91.494881"
           cx="-68.257355"
           id="path6793"
           style="opacity:1;fill:#467962;fill-opacity:1;fill-rule:nonzero;stroke:#000000;stroke-width:0.0391226;stroke-linecap:butt;stroke-linejoin:round;stroke-miterlimit:4;stroke-dasharray:none;stroke-opacity:1;paint-order:fill markers stroke" />
        <ellipse
           style="opacity:1;fill:#467962;fill-opacity:1;fill-rule:nonzero;stroke:#000000;stroke-width:0.0391226;stroke-linecap:butt;stroke-linejoin:round;stroke-miterlimit:4;stroke-dasharray:none;stroke-opacity:1;paint-order:fill markers stroke"
           id="ellipse6799"
           cx="-115.75025"
           cy="91.494881"
           rx="1.0812743"
           ry="1.268418" />
        <g
           style="fill:#585858;fill-opacity:1"
           transform="matrix(-0.13077994,0.25065846,-0.25065846,-0.13077994,-100.16413,213.56136)"
           id="g35017">
          <path
             style="fill:#585858;fill-opacity:1"
             d="m 25.234,2.53 c 0,0 -20.068,4.881 -15.837,14.21 0,0 26.759,34.047 27.336,34.712 0.577,0.664 22.255,27.917 22.779,28.638 0.526,0.72 12.318,16.802 11.282,17.681 -1.037,0.88 13.886,5.315 10.413,-9.003 0,0 -24.081,-26.901 -26.033,-32 -1.952,-5.099 -0.978,-5.315 3.58,-9.546 4.555,-4.231 -0.218,-0.651 -0.218,-0.651 l -6.942,5.64 -36.123,-40.569"
             id="path34940" />
          <polygon
             style="fill:#585858;fill-opacity:1"
             points="13.49,14.696 24.844,6.218 14.437,16.053 "
             id="polygon34942" />
          <polygon
             style="fill:#585858;fill-opacity:1"
             points="15.117,16.468 26.471,7.99 16.064,17.826 "
             id="polygon34944" />
          <polygon
             style="fill:#585858;fill-opacity:1"
             points="16.93,18.134 28.286,9.657 17.877,19.492 "
             id="polygon34946" />
          <polygon
             style="fill:#585858;fill-opacity:1"
             points="18.557,19.907 29.912,11.429 19.505,21.265 "
             id="polygon34948" />
          <polygon
             style="fill:#585858;fill-opacity:1"
             points="20.252,21.603 31.606,13.125 21.199,22.96 "
             id="polygon34950" />
          <polygon
             style="fill:#585858;fill-opacity:1"
             points="21.879,23.375 33.233,14.897 22.826,24.733 "
             id="polygon34952" />
          <polygon
             style="fill:#585858;fill-opacity:1"
             points="23.692,25.042 35.047,16.563 24.64,26.4 "
             id="polygon34954" />
          <polygon
             style="fill:#585858;fill-opacity:1"
             points="25.32,26.814 36.674,18.336 26.267,28.172 "
             id="polygon34956" />
          <polygon
             style="fill:#585858;fill-opacity:1"
             points="26.636,28.835 37.99,20.357 27.583,30.193 "
             id="polygon34958" />
          <polygon
             style="fill:#585858;fill-opacity:1"
             points="28.263,30.607 39.618,22.129 29.21,31.965 "
             id="polygon34960" />
          <polygon
             style="fill:#585858;fill-opacity:1"
             points="30.076,32.274 41.432,23.796 31.024,33.632 "
             id="polygon34962" />
          <polygon
             style="fill:#585858;fill-opacity:1"
             points="31.704,34.046 43.058,25.568 32.651,35.404 "
             id="polygon34964" />
          <polygon
             style="fill:#585858;fill-opacity:1"
             points="33.398,35.742 44.753,27.264 34.345,37.1 "
             id="polygon34966" />
          <polygon
             style="fill:#585858;fill-opacity:1"
             points="35.025,37.515 46.381,29.037 35.973,38.873 "
             id="polygon34968" />
          <polygon
             style="fill:#585858;fill-opacity:1"
             points="36.838,39.181 48.193,30.703 37.786,40.539 "
             id="polygon34970" />
          <polygon
             style="fill:#585858;fill-opacity:1"
             points="38.466,40.954 49.821,32.476 39.414,42.312 "
             id="polygon34972" />
          <polygon
             style="fill:#585858;fill-opacity:1"
             points="39.618,43.013 50.972,34.535 40.565,44.371 "
             id="polygon34974" />
          <polygon
             style="fill:#585858;fill-opacity:1"
             points="41.245,44.785 52.6,36.308 42.192,46.144 "
             id="polygon34976" />
          <polygon
             style="fill:#585858;fill-opacity:1"
             points="42.939,46.481 54.294,38.003 43.887,47.839 "
             id="polygon34978" />
          <polygon
             style="fill:#585858;fill-opacity:1"
             points="44.566,48.253 55.921,39.776 45.514,49.611 "
             id="polygon34980" />
          <polygon
             style="fill:#585858;fill-opacity:1"
             points="46.381,49.92 57.734,41.442 47.328,51.277 "
             id="polygon34982" />
          <polygon
             style="fill:#585858;fill-opacity:1"
             points="48.007,51.692 59.361,43.215 48.954,53.05 "
             id="polygon34984" />
        </g>
        <path
           id="path7826"
           d="m -125.57032,204.64692 4.26987,6.67059 1.28133,4.96647 -3.33915,0.95289 -0.0188,6.98436 c -0.24887,1.47292 -1.23364,1.65909 -1.8511,0.38834 l -0.44927,-6.0037 -0.49792,6.23745 c -0.29788,0.46945 -1.12175,0.77126 -1.69295,-0.21929 l -0.15791,-5.26489 v 0 l -0.84853,4.95064 c -0.57497,0.94585 -1.11297,0.73576 -1.6279,-0.1995 l -0.45566,-4.44655 -0.56382,3.50649 c -0.47423,1.10039 -0.98757,1.18287 -1.53828,0.30309 l -0.095,-4.91627 1.77187,-9.62727 0.56064,-7.9753 5.55809,0.0523 z"
           style="opacity:1;fill:#986234;fill-opacity:1;fill-rule:nonzero;stroke:#6f4f34;stroke-width:0.48009184;stroke-linecap:butt;stroke-linejoin:round;stroke-miterlimit:4;stroke-dasharray:none;stroke-opacity:1;paint-order:fill markers stroke" />
        <path
           id="rect35358"
           d="m -133.79441,162.1803 12.99921,3.11607 -2.61401,40.23337 h -10.39706 c 0.004,-14.44982 -0.9601,-29.48043 0.0124,-43.34944 z"
           style="opacity:1;fill:#874b55;fill-opacity:1;fill-rule:nonzero;stroke:none;stroke-width:0.84387195;stroke-linecap:butt;stroke-linejoin:round;stroke-miterlimit:4;stroke-dasharray:none;stroke-opacity:1;paint-order:fill markers stroke" />
        <g
           transform="matrix(0.0181602,0.21924267,0.21924267,-0.0181602,-78.126309,195.02915)"
           id="g35031">
          <path
             transform="translate(-573.97036,244.3042)"
             id="path35021"
             d="m 682.91016,-229.59375 c -0.28,4 -1.00961,9.75 -6.09961,9.75 h -0.84961 v 10 a 1.5,1.5 0 1 1 -3,0 v -10 h -7 v 10 a 1.5,1.5 0 0 1 -3,0 v -10 h -7 v 10 a 1.5,1.5 0 0 1 -3,0 v -10 h -1 c -5.1,0 -5.80961,-5.7207 -6.09961,-9.7207 a 29.49,29.49 0 0 0 -0.46094,7.90039 c 0.44,5.23 3.03945,18.82031 9.68945,18.82031 h 18.58985 c 6.69,0 9.2514,-13.59031 9.6914,-18.82031 a 29,29 0 0 0 -0.46093,-7.92969 z"
             style="opacity:1;fill:#2e2e2e;fill-opacity:1;fill-rule:nonzero;stroke:#000000;stroke-width:1.28881896;stroke-linecap:butt;stroke-linejoin:round;stroke-miterlimit:4;stroke-dasharray:none;stroke-opacity:1;paint-order:fill markers stroke" />
          <path
             id="path35023"
             transform="translate(-573.97036,244.3042)"
             d="m 685.91016,-217.39453 c -0.79,4.45 -2.58016,11.43937 -6.41016,15.10937 -0.23,3.21 -1.71,21.29039 -2,27.65039 -0.62,12.59 -1,50.62 -1,51 a 11.89,11.89 0 0 1 -12,11.75 h -0.44922 a 11.9,11.9 0 0 1 -12,-11.75976 c 0,-0.37 -0.42,-38.46008 -1,-51.08008 -0.32,-6.7 -1.96008,-26.57 -2.08008,-28 -3,-3.19 -4.69961,-8.42008 -5.59961,-12.58008 a 317.5,317.5 0 0 0 -0.14062,32.15039 c 0.01,0.08 1.67,16.93024 3.25,39.24024 1.93,27.42 2.92969,46.510466 2.92969,56.730466 0,7.27 7.14054,12.339844 13.56054,12.339844 h 3.43946 c 6.41,0 13.56054,-5.069844 13.56054,-12.339844 0,-10.2 1.00016,-29.291016 2.91016,-56.791016 1.58,-22.33 3.25976,-39.16008 3.25976,-39.33008 l 0.01,0.0606 a 299.2,299.2 0 0 0 -0.24023,-34.15039 z"
             style="opacity:1;fill:#585858;fill-opacity:1;fill-rule:nonzero;stroke:none;stroke-width:7.71401596;stroke-linecap:butt;stroke-linejoin:round;stroke-miterlimit:4;stroke-dasharray:none;stroke-opacity:1;paint-order:fill markers stroke" />
          <path
             id="path35025"
             d="m 75,41.58 c 0.554776,6.200067 1.862073,21.184954 2.162576,27.005425 0.716586,13.359668 1.155784,53.585475 1.155784,53.986155 a 10.286478,9.3844549 0 0 0 10.402058,9.25718 h 0.474055 a 10.274921,9.3739106 0 0 0 10.402058,-9.23658 c 0,-0.41124 0.473869,-40.575006 1.155789,-53.934674 0.28895,-5.820471 1.58269,-20.582039 2.14903,-26.908639 a 8.9110953,8.1296795 0 0 1 -2.934612,0.45308 H 78.467352 A 8.8764218,8.0980465 0 0 1 75,41.58 Z"
             style="opacity:1;fill:#404040;fill-opacity:1;fill-rule:nonzero;stroke:none;stroke-width:8.5158577;stroke-linecap:butt;stroke-linejoin:round;stroke-miterlimit:4;stroke-dasharray:none;stroke-opacity:1;paint-order:fill markers stroke" />
          <path
             style="fill:#232323;fill-opacity:1"
             d="M 113.05,16.62 A 1.49,1.49 0 0 0 112.2,15.81 11.87,11.87 0 0 0 110,10 2.44,2.44 0 0 0 108.22,9 c -1.92,0 -2.06,2.05 -2.23,4.65 -0.27,4.11 -0.72,7.8 -3.17,7.8 H 102 v -11 a 1.5,1.5 0 1 0 -3,0 v 11 h -7 v -11 a 1.5,1.5 0 1 0 -3,0 v 11 h -7 v -11 a 1.5,1.5 0 1 0 -3,0 v 11 h -1 c -2.45,0 -2.9,-3.69 -3.17,-7.81 C 74.65,11.06 74.52,9 72.6,9 a 2.44,2.44 0 0 0 -1.78,1 12.42,12.42 0 0 0 -2.24,6.29 1.48,1.48 0 0 0 -0.21,0.34 c -2.46,5.74 -2.84,26.56 -2.11,44.74 0,0.17 1.67,17 3.25,39.24 1.91,27 2.92,46.51 2.92,56.52 0,7.41 6.66,15.34 16.56,15.34 h 3.43 c 9.91,0 16.56,-7.93 16.56,-15.34 0,-10.13 1,-29.15 2.92,-56.52 1.58,-22.26 3.24,-39.08 3.26,-39.33 0.73,-18.1 0.35,-38.92 -2.11,-44.66 z M 71.89,14.74 c 0.29,4 1,9.72 6.1,9.72 h 1 v 10 a 1.5,1.5 0 0 0 3,0 v -10 h 7 v 10 a 1.5,1.5 0 0 0 3,0 v -10 h 7 v 10 a 1.5,1.5 0 1 0 3,0 v -10 h 0.85 c 5.09,0 5.82,-5.75 6.1,-9.75 a 29,29 0 0 1 0.46,7.93 c -0.44,5.23 -3,18.82 -9.69,18.82 H 81.12 c -6.65,0 -9.25,-13.59 -9.69,-18.82 a 29.49,29.49 0 0 1 0.46,-7.9 z M 102.27,44 c -0.49,6 -1.61,20 -1.86,25.52 -0.59,12.67 -1,50.76 -1,51.15 a 8.89,8.89 0 0 1 -9,8.76 H 90 a 8.9,8.9 0 0 1 -9,-8.78 C 81,120.27 80.62,82.12 80,69.45 79.74,63.93 78.61,49.72 78.13,43.84 a 7.68,7.68 0 0 0 3,0.59 h 18.6 A 7.71,7.71 0 0 0 102.27,44 Z m 9.9,17 c 0,0.17 -1.68,17 -3.26,39.33 -1.91,27.5 -2.91,46.59 -2.91,56.79 0,7.27 -7.15,12.34 -13.56,12.34 H 89 c -6.42,0 -13.56,-5.07 -13.56,-12.34 0,-10.22 -1,-29.31 -2.93,-56.73 C 70.93,78.08 69.27,61.23 69.26,61.15 A 317.5,317.5 0 0 1 69.4,29 c 0.9,4.16 2.6,9.39 5.6,12.58 0.12,1.43 1.76,21.3 2.08,28 0.58,12.62 1,50.71 1,51.08 a 11.9,11.9 0 0 0 12,11.76 h 0.45 a 11.89,11.89 0 0 0 12,-11.75 c 0,-0.38 0.38,-38.41 1,-51 0.29,-6.36 1.77,-24.44 2,-27.65 3.83,-3.67 5.62,-10.66 6.41,-15.11 a 299.2,299.2 0 0 1 0.24,34.15 z"
             id="path35027" />
          <path
             style="fill:#212121;fill-opacity:1"
             d="m 90,106.79 a 7,7 0 0 0 -7,7.4 v 5.27 a 7,7 0 1 0 14,0 v -5.27 a 7,7 0 0 0 -7,-7.4 z m 4,12.67 a 4,4 0 1 1 -8,0 v -5.27 a 4,4 0 1 1 8,0 z"
             id="path35029" />
        </g>
        <path
           style="opacity:1;fill:#986234;fill-opacity:1;fill-rule:nonzero;stroke:#6f4f34;stroke-width:0.45677897;stroke-linecap:butt;stroke-linejoin:round;stroke-miterlimit:4.9000001;stroke-dasharray:none;stroke-opacity:1;paint-order:fill markers stroke"
           d="m -49.367975,205.17343 -2.693467,-13.78294 6.446477,-0.37221 3.303237,13.20686 1.080619,3.04708 c 0.894408,5.57765 0.217712,7.45205 0.15592,10.5296 l -2.243764,-0.19349 -0.117678,-4.90674 -0.617775,-3.59972 v 0 c 0.04724,2.7729 0.562684,5.47726 0.735618,8.50644 l -1.99903,-0.0188 c -0.457805,-2.92119 -1.263741,-8.23339 -1.263741,-8.23339 v 0 c 0,0 0.871105,5.84939 1.263741,8.23339 l -2.161994,-0.22078 c -0.443812,-2.46571 -1.105858,-5.1134 -1.623174,-7.67828 v 0 l 1.623174,7.67828 v 0 l -2.130892,-0.0434 -0.617817,-3.85677 c 0,0 -0.0055,-0.30573 -0.954002,-3.7463 l -0.945008,-0.0585 c 0.577405,1.67925 0.596958,2.38657 0.710132,3.89558 1.664836,1.92525 1.422312,4.22423 1.014119,4.12819 l -2.316555,-2.35927 c -0.977332,-2.46623 -1.036514,-3.67287 -1.206618,-5.41579 1.081209,-1.70636 3.153936,-3.6731 4.560291,-4.73977 z"
           id="path5129" />
        <path
           style="opacity:1;fill:#874b55;fill-opacity:1;fill-rule:nonzero;stroke:none;stroke-width:0.84234804;stroke-linecap:butt;stroke-linejoin:round;stroke-miterlimit:4;stroke-dasharray:none;stroke-opacity:1;paint-order:fill markers stroke"
           d="m -49.552003,161.91335 c -5.801241,-0.0432 -12.22098,-1.00269 -14.806587,3.71801 l 13.05085,38.06556 9.641113,-1.61155 c -2.628463,-13.39067 -3.731685,-28.43369 -7.885376,-40.17202 z"
           id="path35361" />
      </g>
    </g>
  </g>
</svg>
